<?xml version="1.0" standalone="no"?>
<!DOCTYPE svg PUBLIC "-//W3C//DTD SVG 1.1//EN" "http://www.w3.org/Graphics/SVG/1.1/DTD/svg11.dtd" >
<svg xmlns="http://www.w3.org/2000/svg" xmlns:xlink="http://www.w3.org/1999/xlink" version="1.1">
<metadata>
Created by FontForge 20170910 at Sun Aug 31 01:07:02 2014
 By Jimmy Wärting
Typeface (c) (ar.photoshop.3abber.com). 2014. All Rights Reserved
</metadata>
<defs>
<font id="VIPRawyRegular" horiz-adv-x="1145" >
  <font-face 
    font-family="VIP Rawy Regular"
    font-weight="400"
    font-stretch="normal"
    units-per-em="2048"
    panose-1="2 0 5 0 0 0 0 0 0 0"
    ascent="1638"
    descent="-410"
    x-height="1006"
    cap-height="1448"
    bbox="-147 -793 2087 2103"
    underline-thickness="150"
    underline-position="-292"
    unicode-range="U+001D-FEFC"
  />
<missing-glyph horiz-adv-x="1024" 
d="M100 0v1434h824v-1434h-824zM150 50h724v1334h-724v-1334zM325 1148q31 28 58 43q53 30 112 30q92 0 148 -47.5t56 -127.5q0 -49 -23 -98.5t-87 -129.5q-63 -80 -99 -132t-36 -99q0 -38 24 -133h-32q-35 97 -35 148q0 76 81.5 218t81.5 217q0 57 -33 90t-91 33
q-38 0 -69 -17q-26 -15 -56 -40v45zM389 334l57 58q11 10 20 10q10 0 22 -11l56 -60q9 -11 9 -20q0 -11 -10 -22l-56 -62q-14 -14 -21 -14q-11 0 -20 10l-61 71q-7 9 -7 18q0 10 11 22z" />
    <glyph glyph-name="uniFEF6" unicode="&#xfee0;&#xfe82;" horiz-adv-x="1108" arabic-form="final" 
d="M397 199v960h125v-960h-125zM966 0q-63 8 -106 94q-17 -24 -35 -47q-14 -16 -31 -33l-6 -6q-123 -119 -297 -119q-178 0 -304 125t-126 303l139 -2q0 -122 87.5 -209.5t211.5 -87.5q72 0 129 29q43 21 80 57q84 84 88 201h-2l2 316v606h125v-922q0 -180 80 -180h127v-125
h-162zM735 1329l-90 -72l-101 127l-165 -131l-172 217l90 72l100 -127l166 133z" />
    <glyph glyph-name="uniFEF8" unicode="&#xfee0;&#xfe84;" horiz-adv-x="1108" arabic-form="final" 
d="M397 199v960h125v-960h-125zM966 0q-63 8 -106 94q-17 -24 -35 -47q-14 -16 -31 -33l-6 -6q-123 -119 -297 -119q-178 0 -304 125t-126 303l139 -2q0 -122 87.5 -209.5t211.5 -87.5q72 0 129 29q43 21 80 57q84 84 88 201h-2l2 316v606h125v-922q0 -180 80 -180h127v-125
h-162zM485 1335h213v-104h-436v104h31q-23 23 -23 111q0 86 63.5 149.5t155.5 63.5q94 0 147.5 -64.5t43.5 -177.5h-90q0 70 -31 101q-29 30 -70 30t-70.5 -30.5t-29.5 -75.5t29 -74q30 -31 67 -33z" />
    <glyph glyph-name="uniFEFA" unicode="&#xfee0;&#xfe88;" horiz-adv-x="1108" arabic-form="final" 
d="M397 199v960h125v-960h-125zM966 0q-63 8 -106 94q-17 -24 -35 -47q-14 -16 -31 -33l-6 -6q-123 -119 -297 -119q-178 0 -304 125t-126 303l139 -2q0 -122 87.5 -209.5t211.5 -87.5q72 0 129 29q43 21 80 57q84 84 88 201h-2l2 316v606h125v-922q0 -180 80 -180h127v-125
h-162zM489 -528h213v-105h-436v105h31q-23 22 -23 110q0 86 63.5 149.5t155.5 63.5q94 0 147.5 -64.5t43.5 -176.5h-90q0 69 -31 100q-29 31 -70 31t-70.5 -31t-29.5 -76t29 -74q30 -30 67 -32z" />
    <glyph glyph-name="uniFEFC" unicode="&#xfee0;&#xfe8e;" horiz-adv-x="1108" arabic-form="final" 
d="M397 199v960h125v-960h-125zM966 0q-63 8 -106 94q-17 -24 -35 -47q-14 -16 -31 -33l-6 -6q-123 -119 -297 -119q-178 0 -304 125t-126 303l139 -2q0 -122 87.5 -209.5t211.5 -87.5q72 0 129 29q43 21 80 57q84 84 88 201h-2l2 316v606h125v-922q0 -180 80 -180h127v-125
h-162z" />
    <glyph glyph-name="uniFEF5" unicode="&#xfedf;&#xfe82;" horiz-adv-x="1003" arabic-form="isolated" 
d="M796 305q-3 -116 -88 -201q-86 -86 -209 -86q-126 0 -211 88q-88 86 -88 209l-139 2q0 -176 127 -303q125 -125 303 -125t303 125q121 121 127 285v928h-125l-2 -922h2zM522 199v960h-125v-960h125zM550 1538l-159 -127l-97 121l-88 -68l166 -211l160 127l96 -123l88 70z
" />
    <glyph glyph-name="uniFEF7" unicode="&#xfedf;&#xfe84;" horiz-adv-x="1003" arabic-form="isolated" 
d="M796 305q-3 -116 -88 -201q-86 -86 -209 -86q-126 0 -211 88q-88 86 -88 209l-139 2q0 -176 127 -303q125 -125 303 -125t303 125q121 121 127 285v928h-125l-2 -922h2zM522 199v960h-125v-960h125zM489 1335q-38 3 -68 33q-28 29 -28 74t30 76q28 30 70 30t70 -30
q30 -31 30 -101h91q9 114 -43 178t-148 64q-92 0 -156 -64q-63 -63 -63 -149q0 -88 23 -111h-31v-104h436v104h-213z" />
    <glyph glyph-name="uniFEF9" unicode="&#xfedf;&#xfe88;" horiz-adv-x="1003" arabic-form="isolated" 
d="M796 305q-3 -116 -88 -201q-86 -86 -209 -86q-126 0 -211 88q-88 86 -88 209l-139 2q0 -176 127 -303q125 -125 303 -125t303 125q121 121 127 285v928h-125l-2 -922h2zM522 199v960h-125v-960h125zM489 -524q-38 3 -68 32q-28 29 -28 74t30 76q28 31 70 31t70 -31
q30 -31 30 -100h91q9 113 -43 178q-52 63 -148 63q-92 0 -156 -63q-63 -64 -63 -150q0 -88 23 -110h-31v-105h436v105h-213z" />
    <glyph glyph-name="uniFEFB" unicode="&#xfedf;&#xfe8e;" horiz-adv-x="1003" arabic-form="isolated" 
d="M796 305q-3 -116 -88 -201q-86 -86 -209 -86q-126 0 -211 88q-88 86 -88 209l-139 2q0 -176 127 -303q125 -125 303 -125t303 125q121 121 127 285v928h-125l-2 -922h2zM522 199v960h-125v-960h125z" />
    <glyph glyph-name="uniFDF2" unicode="&#xfedf;&#xfee0;&#xfeea;" horiz-adv-x="1908" arabic-form="isolated" 
d="M499 721q119 -4 201 -86q86 -88 86 -213v-297h-309q-115 2 -201 88t-86 207v2q0 125 88 213q86 86 209 86h12zM919 125v305q0 180 -125 305q-125 123 -295 125h-10q-178 0 -303 -125t-125 -305v-10q2 -170 125 -293q121 -121 285 -127h1355v1229h-125v-1104h-305v1104
h-125v-1104h-352zM1173 1798h-115v-274h506v293h-112v-181h-78v162h-113v-162h-88v162zM1261 1855h113v248h-113v-248z" />
    <glyph glyph-name="uniFE8B" unicode="&#x626;" horiz-adv-x="598" arabic-form="initial" 
d="M391 125v733h125v-858h-536v125h411zM299 1120h213v-104h-436v104h30q-22 23 -22 111q0 86 63.5 149.5t155.5 63.5q94 0 147.5 -64.5t43.5 -177.5h-91q0 70 -30 101q-29 30 -70 30t-70.5 -30.5t-29.5 -75.5t28 -74q31 -31 68 -33z" />
    <glyph glyph-name="uniFE91" unicode="&#x628;" horiz-adv-x="598" arabic-form="initial" 
d="M391 125v733h125v-858h-536v125h411zM430 -166q0 -41 -28.5 -68.5t-67.5 -27.5q-41 0 -69.5 27.5t-28.5 68.5t28.5 68.5t69.5 27.5q39 0 67.5 -27.5t28.5 -68.5z" />
    <glyph glyph-name="uniFE97" unicode="&#x62a;" horiz-adv-x="618" arabic-form="initial" 
d="M391 125v733h125v-858h-536v125h411zM221.5 1176.5q28.5 -27.5 28.5 -68.5t-28.5 -68.5t-67.5 -27.5q-41 0 -70 27.5t-29 68.5t29 68.5t70 27.5q39 0 67.5 -27.5zM508 1176.5q29 -27.5 29 -68.5t-29 -68.5t-68 -27.5q-41 0 -69.5 27.5t-28.5 68.5t28.5 68.5t69.5 27.5
q39 0 68 -27.5z" />
    <glyph glyph-name="uniFE9B" unicode="&#x62b;" horiz-adv-x="618" arabic-form="initial" 
d="M391 125v733h125v-858h-536v125h411zM221.5 1176.5q28.5 -27.5 28.5 -68.5t-28.5 -68.5t-67.5 -27.5q-41 0 -70 27.5t-29 68.5t29 68.5t70 27.5q39 0 67.5 -27.5zM508 1176.5q29 -27.5 29 -68.5t-29 -68.5t-68 -27.5q-41 0 -69.5 27.5t-28.5 68.5t28.5 68.5t69.5 27.5
q39 0 68 -27.5zM366.5 1453q28.5 -28 28.5 -69t-28.5 -68.5t-67.5 -27.5q-41 0 -69.5 27.5t-28.5 68.5t28.5 69t69.5 28q39 0 67.5 -28z" />
    <glyph glyph-name="uniFE9F" unicode="&#x62c;" arabic-form="initial" 
d="M647 125q117 4 201 88q86 86 86 209q0 125 -87 212t-210 87q-125 0 -211 -86q-88 -88 -88 -211h-133v6q0 178 126 304t304 126t303 -126t125 -304t-125 -303q-119 -121 -285 -127h-673v125h352l315 2v-2zM594 -166q0 -41 -28.5 -68.5t-67.5 -27.5q-41 0 -70 27.5
t-29 68.5t29 68.5t70 27.5q39 0 67.5 -27.5t28.5 -68.5z" />
    <glyph glyph-name="uniFEA3" unicode="&#x62d;" arabic-form="initial" 
d="M647 125q117 4 201 88q86 86 86 209q0 125 -87 212t-210 87q-125 0 -211 -86q-88 -88 -88 -211h-133v6q0 178 126 304t304 126t303 -126t125 -304t-125 -303q-119 -121 -285 -127h-673v125h352l315 2v-2z" />
    <glyph glyph-name="uniFEA7" unicode="&#x62e;" arabic-form="initial" 
d="M647 125q117 4 201 88q86 86 86 209q0 125 -87 212t-210 87q-125 0 -211 -86q-88 -88 -88 -211h-133v6q0 178 126 304t304 126t303 -126t125 -304t-125 -303q-119 -121 -285 -127h-673v125h352l315 2v-2zM735 1108q0 -41 -28.5 -68.5t-67.5 -27.5q-41 0 -69.5 27.5
t-28.5 68.5t28.5 68.5t69.5 27.5q39 0 67.5 -27.5t28.5 -68.5z" />
    <glyph glyph-name="uniFEB3" unicode="&#x633;" horiz-adv-x="1143" arabic-form="initial" 
d="M317 125h222v713h127v-713h270v733h125v-858h-1081v125h210v713h127v-713z" />
    <glyph glyph-name="uniFEB7" unicode="&#x634;" horiz-adv-x="1143" arabic-form="initial" 
d="M317 125h222v713h127v-713h270v733h125v-858h-1081v125h210v713h127v-713zM549 1176.5q29 -27.5 29 -68.5t-29 -68.5t-68 -27.5q-41 0 -69.5 27.5t-28.5 68.5t28.5 68.5t69.5 27.5q39 0 68 -27.5zM835.5 1176.5q28.5 -27.5 28.5 -68.5t-28.5 -68.5t-67.5 -27.5
q-41 0 -69.5 27.5t-28.5 68.5t28.5 68.5t69.5 27.5q39 0 67.5 -27.5zM694.5 1453q28.5 -28 28.5 -69t-28.5 -68.5t-67.5 -27.5q-41 0 -70 27.5t-29 68.5t29 69t70 28q39 0 67.5 -28z" />
    <glyph glyph-name="uniFEBB" unicode="&#x635;" horiz-adv-x="1180" arabic-form="initial" 
d="M332 125h350q117 4 201 88q86 86 86 209q0 125 -87 212t-210 87q-125 0 -211 -66q-127 -106 -129 -229v-301zM332 696q16 21 35 39q125 125 303 125t303 -126t125 -304t-125 -303q-119 -121 -285 -127h-708v125h225v735h127v-164z" />
    <glyph glyph-name="uniFEBF" unicode="&#x636;" horiz-adv-x="1180" arabic-form="initial" 
d="M332 125h350q117 4 201 88q86 86 86 209q0 125 -87 212t-210 87q-125 0 -211 -66q-127 -106 -129 -229v-301zM735 1108q0 -41 -28.5 -68.5t-67.5 -27.5q-41 0 -69.5 27.5t-28.5 68.5t28.5 68.5t69.5 27.5q39 0 67.5 -27.5t28.5 -68.5zM332 696q16 21 35 39
q125 125 303 125t303 -126t125 -304t-125 -303q-119 -121 -285 -127h-708v125h225v735h127v-164z" />
    <glyph glyph-name="uniFEC1" unicode="&#x637;" horiz-adv-x="1182" arabic-form="isolated" 
d="M334 125h350q117 4 201 88q86 86 86 209q0 125 -87 212t-210 87q-125 0 -211 -66q-127 -106 -129 -229v-301zM334 696q16 21 35 39q125 125 303 125t303 -126t125 -304t-125 -303q-119 -121 -285 -127h-710v125h227v1104h127v-533z" />
    <glyph glyph-name="uniFEC5" unicode="&#x638;" horiz-adv-x="1182" arabic-form="isolated" 
d="M334 125h350q117 4 201 88q86 86 86 209q0 125 -87 212t-210 87q-125 0 -211 -66q-127 -106 -129 -229v-301zM772 1108q0 -41 -28.5 -68.5t-67.5 -27.5q-41 0 -69.5 27.5t-28.5 68.5t28.5 68.5t69.5 27.5q39 0 67.5 -27.5t28.5 -68.5zM334 696q16 21 35 39
q125 125 303 125t303 -126t125 -304t-125 -303q-119 -121 -285 -127h-710v125h227v1104h127v-533z" />
    <glyph glyph-name="uniFECB" unicode="&#x639;" arabic-form="initial" 
d="M621 125h415v-125h-1056v125h352l-2 2q-125 125 -125 303t125 304t303 126t304 -126t126 -304v-6h-133q0 123 -88 211q-86 86 -211 86q-123 0 -210 -87t-87 -212q0 -123 86 -209q84 -84 201 -88z" />
    <glyph glyph-name="uniFECF" unicode="&#x63a;" arabic-form="initial" 
d="M629 1204q41 0 69.5 -27.5t28.5 -68.5t-28.5 -68.5t-69.5 -27.5q-39 0 -68 27.5t-29 68.5t29 68.5t68 27.5zM621 125h415v-125h-1056v125h352l-2 2q-125 125 -125 303t125 304t303 126t304 -126t126 -304v-6h-133q0 123 -88 211q-86 86 -211 86q-123 0 -210 -87t-87 -212
q0 -123 86 -209q84 -84 201 -88z" />
    <glyph glyph-name="uniFED3" unicode="&#x641;" arabic-form="initial" 
d="M600 127h47v-2q117 4 201 88q86 86 86 209q0 125 -87 212t-210 87q-125 0 -212 -87t-87 -212q0 -123 88 -209q72 -74 174 -86zM-20 0v125h352v2q-127 125 -127 303t126 304t304 126t303 -126t125 -304t-125 -303q-119 -121 -285 -127h-673zM706.5 1176.5
q28.5 -27.5 28.5 -68.5t-28.5 -68.5t-67.5 -27.5q-41 0 -69.5 27.5t-28.5 68.5t28.5 68.5t69.5 27.5q39 0 67.5 -27.5z" />
    <glyph glyph-name="uniFED7" unicode="&#x642;" arabic-form="initial" 
d="M600 127h47v-2q117 4 201 88q86 86 86 209q0 125 -87 212t-210 87q-125 0 -212 -87t-87 -212q0 -123 88 -209q72 -74 174 -86zM-20 0v125h352v2q-127 125 -127 303t126 304t304 126t303 -126t125 -304t-125 -303q-119 -121 -285 -127h-673zM563.5 1176.5
q28.5 -27.5 28.5 -68.5t-28.5 -68.5t-67.5 -27.5q-41 0 -70 27.5t-29 68.5t29 68.5t70 27.5q39 0 67.5 -27.5zM850 1176.5q29 -27.5 29 -68.5t-29 -68.5t-68 -27.5q-41 0 -69.5 27.5t-28.5 68.5t28.5 68.5t69.5 27.5q39 0 68 -27.5z" />
    <glyph glyph-name="uniFEDB" unicode="&#x643;" horiz-adv-x="1165" arabic-form="initial" 
d="M877 799q43 -25 81 -64q125 -127 125 -305t-125 -303q-118 -121 -284 -127h-694v125h372l316 2v-2q116 4 200 88q86 86 86 209q0 125 -86 213q-26 27 -57 45q-66 39 -143 41h-203q-115 -2 -199 -82l-10 16l-88 68l399 518l99 -76l-234 -305h236q116 -2 209 -61z" />
    <glyph glyph-name="uniFEDF" unicode="&#x644;" horiz-adv-x="414" arabic-form="initial" 
d="M207 125v1104h125v-1229h-352v125h227z" />
    <glyph glyph-name="uniFEE3" unicode="&#x645;" arabic-form="initial" 
d="M600 57h47v-2q117 4 201 88q86 86 86 209q0 125 -87 212t-210 87q-125 0 -212 -87t-87 -212q0 -123 88 -209q72 -73 174 -86zM393 0h-413v125h292q-67 102 -67 231q0 179 126 304.5t304 125.5t303 -125.5t125 -304.5q0 -178 -125 -303q-109 -110 -258 -125
q-170 -8 -287 72z" />
    <glyph glyph-name="uniFEE7" unicode="&#x646;" horiz-adv-x="598" arabic-form="initial" 
d="M391 125v733h125v-858h-536v125h411zM426 1176.5q29 -27.5 29 -68.5t-29 -68.5t-68 -27.5q-41 0 -69.5 27.5t-28.5 68.5t28.5 68.5t69.5 27.5q39 0 68 -27.5z" />
    <glyph glyph-name="uniFEEB" unicode="&#x647;" horiz-adv-x="1217" arabic-form="initial" 
d="M250 125q-47 68 -47 156q0 108 76 188q12 154 124 266q125 125 304 125q178 0 303 -126t125 -304t-125 -303q-119 -121 -285 -127h-745v125h270zM709 125h10q117 4 201 88q86 86 86 209q0 125 -87.5 212t-209.5 87q-125 0 -211 -86q-39 -39 -60 -82q19 2 39 2
q115 0 196 -81t81 -193q0 -86 -45 -156zM403 125l158 2q21 10 39 29q49 49 49 116q0 70 -49 119t-119 49q-39 0 -71 -16h-2q-25 -12 -46 -33q-49 -49 -49 -119q0 -67 49 -116q19 -19 41 -31z" />
    <glyph glyph-name="uniFEF3" unicode="&#x64a;" horiz-adv-x="618" arabic-form="initial" 
d="M391 125v733h125v-858h-536v125h411zM209 -103.5q29 -27.5 29 -68.5t-29 -68.5t-68 -27.5q-41 0 -69.5 27.5t-28.5 68.5t28.5 68.5t69.5 27.5q39 0 68 -27.5zM495.5 -103.5q28.5 -27.5 28.5 -68.5t-28.5 -68.5t-67.5 -27.5q-41 0 -69.5 27.5t-28.5 68.5t28.5 68.5
t69.5 27.5q39 0 67.5 -27.5z" />
    <glyph glyph-name="uniFB58" unicode="&#x67e;" horiz-adv-x="576" arabic-form="initial" 
d="M391 125v733h125v-858h-536v125h411zM121 -271q-41 0 -70 27.5t-29 68.5t29 68.5t70 27.5q39 0 67.5 -27.5t28.5 -68.5t-28.5 -68.5t-67.5 -27.5zM266 -548q-41 0 -69.5 28t-28.5 69t28.5 68.5t69.5 27.5q39 0 67.5 -27.5t28.5 -68.5t-28.5 -69t-67.5 -28zM407 -271
q-41 0 -69.5 27.5t-28.5 68.5t28.5 68.5t69.5 27.5q39 0 68 -27.5t29 -68.5t-29 -68.5t-68 -27.5z" />
    <glyph glyph-name="uniFB6C" unicode="&#x6a4;" arabic-form="initial" 
d="M600 127h47v-2q117 4 201 88q86 86 86 209q0 125 -87 212t-210 87q-125 0 -212 -87t-87 -212q0 -123 88 -209q72 -74 174 -86zM-20 0v125h352v2q-127 125 -127 303t126 304t304 126t303 -126t125 -304t-125 -303q-119 -121 -285 -127h-673zM561.5 1176.5
q28.5 -27.5 28.5 -68.5t-28.5 -68.5t-67.5 -27.5q-41 0 -70 27.5t-29 68.5t29 68.5t70 27.5q39 0 67.5 -27.5zM848 1176.5q29 -27.5 29 -68.5t-29 -68.5t-68 -27.5q-41 0 -69.5 27.5t-28.5 68.5t28.5 68.5t69.5 27.5q39 0 68 -27.5zM706.5 1453q28.5 -28 28.5 -69
t-28.5 -68.5t-67.5 -27.5q-41 0 -69.5 27.5t-28.5 68.5t28.5 69t69.5 28q39 0 67.5 -28z" />
    <glyph glyph-name="uniFB7C" unicode="&#x686;" arabic-form="initial" 
d="M647 125q117 4 201 88q86 86 86 209q0 125 -87 212t-210 87q-125 0 -211 -86q-88 -88 -88 -211h-133v6q0 178 126 304t304 126t303 -126t125 -304t-125 -303q-119 -121 -285 -127h-673v125h352l315 2v-2zM331 -271q-41 0 -70 27.5t-29 68.5t29 68.5t70 27.5
q39 0 67.5 -27.5t28.5 -68.5t-28.5 -68.5t-67.5 -27.5zM476 -548q-41 0 -69.5 28t-28.5 69t28.5 68.5t69.5 27.5q39 0 67.5 -27.5t28.5 -68.5t-28.5 -69t-67.5 -28zM617 -271q-41 0 -69.5 27.5t-28.5 68.5t28.5 68.5t69.5 27.5q39 0 68 -27.5t29 -68.5t-29 -68.5t-68 -27.5z
" />
    <glyph glyph-name="uniFE8C" unicode="&#x626;" horiz-adv-x="618" arabic-form="medial" 
d="M-20 0v125h411v733h125v-733h123v-125h-659zM305 1120h213v-104h-436v104h31q-23 23 -23 111q0 86 63.5 149.5t155.5 63.5q94 0 147.5 -64.5t43.5 -177.5h-90q0 70 -31 101q-29 30 -70 30t-70.5 -30.5t-29.5 -75.5t29 -74q30 -31 67 -33z" />
    <glyph glyph-name="uniFE92" unicode="&#x628;" horiz-adv-x="618" arabic-form="medial" 
d="M-20 0v125h411v733h125v-733h123v-125h-659zM430 -166q0 -41 -28.5 -68.5t-67.5 -27.5q-41 0 -69.5 27.5t-28.5 68.5t28.5 68.5t69.5 27.5q39 0 67.5 -27.5t28.5 -68.5z" />
    <glyph glyph-name="uniFE98" unicode="&#x62a;" horiz-adv-x="618" arabic-form="medial" 
d="M250 1108q0 -41 -28.5 -68.5t-67.5 -27.5q-41 0 -70 27.5t-29 68.5t29 68.5t70 27.5q39 0 67.5 -27.5t28.5 -68.5zM-20 0v125h411v733h125v-733h123v-125h-659zM537 1108q0 -41 -29 -68.5t-68 -27.5q-41 0 -69.5 27.5t-28.5 68.5t28.5 68.5t69.5 27.5q39 0 68 -27.5
t29 -68.5z" />
    <glyph glyph-name="uniFE9C" unicode="&#x62b;" horiz-adv-x="618" arabic-form="medial" 
d="M250 1108q0 -41 -28.5 -68.5t-67.5 -27.5q-41 0 -70 27.5t-29 68.5t29 68.5t70 27.5q39 0 67.5 -27.5t28.5 -68.5zM-20 0v125h411v733h125v-733h123v-125h-659zM395 1384q0 -41 -28.5 -68.5t-67.5 -27.5q-41 0 -69.5 27.5t-28.5 68.5t28.5 69t69.5 28q39 0 67.5 -28
t28.5 -69zM537 1108q0 -41 -29 -68.5t-68 -27.5q-41 0 -69.5 27.5t-28.5 68.5t28.5 68.5t69.5 27.5q39 0 68 -27.5t29 -68.5z" />
    <glyph glyph-name="uniFEA0" unicode="&#x62c;" horiz-adv-x="1159" arabic-form="medial" 
d="M-20 0v125h667q117 4 201 88q86 86 86 209q0 125 -87 212t-210 87q-125 0 -211 -86q-88 -88 -88 -211h-133v6q0 178 126 304t304 126t303 -126t125 -304t-125 -303l-2 -2h244v-125h-1200zM594 -166q0 -41 -28.5 -68.5t-67.5 -27.5q-41 0 -70 27.5t-29 68.5t29 68.5
t70 27.5q39 0 67.5 -27.5t28.5 -68.5z" />
    <glyph glyph-name="uniFEA4" unicode="&#x62d;" horiz-adv-x="1159" arabic-form="medial" 
d="M-20 0v125h667q117 4 201 88q86 86 86 209q0 125 -87 212t-210 87q-125 0 -211 -86q-88 -88 -88 -211h-133v6q0 178 126 304t304 126t303 -126t125 -304t-125 -303l-2 -2h244v-125h-1200z" />
    <glyph glyph-name="uniFEA8" unicode="&#x62e;" horiz-adv-x="1159" arabic-form="medial" 
d="M735 1108q0 -41 -28.5 -68.5t-67.5 -27.5q-41 0 -69.5 27.5t-28.5 68.5t28.5 68.5t69.5 27.5q39 0 67.5 -27.5t28.5 -68.5zM-20 0v125h667q117 4 201 88q86 86 86 209q0 125 -87 212t-210 87q-125 0 -211 -86q-88 -88 -88 -211h-133v6q0 178 126 304t304 126t303 -126
t125 -304t-125 -303l-2 -2h244v-125h-1200z" />
    <glyph glyph-name="uniFEB4" unicode="&#x633;" horiz-adv-x="1159" arabic-form="medial" 
d="M190 125v713h127v-713h222v713h127v-713h270v733h125v-733h119v-125h-1200v125h210z" />
    <glyph glyph-name="uniFEB8" unicode="&#x634;" horiz-adv-x="1159" arabic-form="medial" 
d="M578 1108q0 -41 -29 -68.5t-68 -27.5q-41 0 -69.5 27.5t-28.5 68.5t28.5 68.5t69.5 27.5q39 0 68 -27.5t29 -68.5zM190 125v713h127v-713h222v713h127v-713h270v733h125v-733h119v-125h-1200v125h210zM723 1384q0 -41 -28.5 -68.5t-67.5 -27.5q-41 0 -70 27.5t-29 68.5
t29 69t70 28q39 0 67.5 -28t28.5 -69zM864 1108q0 -41 -28.5 -68.5t-67.5 -27.5q-41 0 -69.5 27.5t-28.5 68.5t28.5 68.5t69.5 27.5q39 0 67.5 -27.5t28.5 -68.5z" />
    <glyph glyph-name="uniFEBC" unicode="&#x635;" horiz-adv-x="1180" arabic-form="medial" 
d="M682 125q117 4 201 88q86 86 86 209q0 125 -87 212t-210 87q-125 0 -211 -66q-127 -106 -129 -229v-301h350zM205 125v735h127v-164q16 21 35 39q125 125 303 125t303 -126t125 -304t-125 -303l-2 -2h229v-125h-1220v125h225z" />
    <glyph glyph-name="uniFEC0" unicode="&#x636;" horiz-adv-x="1180" arabic-form="medial" 
d="M735 1108q0 -41 -28.5 -68.5t-67.5 -27.5q-41 0 -69.5 27.5t-28.5 68.5t28.5 68.5t69.5 27.5q39 0 67.5 -27.5t28.5 -68.5zM682 125q117 4 201 88q86 86 86 209q0 125 -87 212t-210 87q-125 0 -211 -66q-127 -106 -129 -229v-301h350zM205 125v735h127v-164q16 21 35 39
q125 125 303 125t303 -126t125 -304t-125 -303l-2 -2h229v-125h-1220v125h225z" />
    <glyph glyph-name="uniFEC2" unicode="&#x637;" horiz-adv-x="1182" arabic-form="final" 
d="M684 125q117 4 201 88q86 86 86 209q0 125 -87 212t-210 87q-125 0 -211 -66q-127 -106 -129 -229v-301h350zM207 125v1104h127v-533q16 21 35 39q125 125 303 125t303 -126t125 -304t-125 -303l-2 -2h229v-125h-1222v125h227z" />
    <glyph glyph-name="uniFEC6" unicode="&#x638;" horiz-adv-x="1182" arabic-form="final" 
d="M772 1108q0 -41 -28.5 -68.5t-67.5 -27.5q-41 0 -69.5 27.5t-28.5 68.5t28.5 68.5t69.5 27.5q39 0 67.5 -27.5t28.5 -68.5zM684 125q117 4 201 88q86 86 86 209q0 125 -87 212t-210 87q-125 0 -211 -66q-127 -106 -129 -229v-301h350zM207 125v1104h127v-533q16 21 35 39
q125 125 303 125t303 -126t125 -304t-125 -303l-2 -2h229v-125h-1222v125h227z" />
    <glyph glyph-name="uniFECC" unicode="&#x639;" arabic-form="medial" 
d="M332 125l-2 2q-125 125 -125 303t125 304t303 126t304 -126t126 -304v-6h-133q0 123 -88 211q-86 86 -211 86q-123 0 -210 -87t-87 -212q0 -123 86 -209q84 -84 201 -88h544v-125h-1185v125h352z" />
    <glyph glyph-name="uniFED0" unicode="&#x63a;" arabic-form="medial" 
d="M629 1204q41 0 69.5 -27.5t28.5 -68.5t-28.5 -68.5t-69.5 -27.5q-39 0 -68 27.5t-29 68.5t29 68.5t68 27.5zM332 125l-2 2q-125 125 -125 303t125 304t303 126t304 -126t126 -304v-6h-133q0 123 -88 211q-86 86 -211 86q-123 0 -210 -87t-87 -212q0 -123 86 -209
q84 -84 201 -88h544v-125h-1185v125h352z" />
    <glyph glyph-name="uniFED4" unicode="&#x641;" arabic-form="medial" 
d="M600 127l47 -2q117 4 201 88q86 86 86 209q0 125 -87 212t-210 87q-125 0 -212 -87t-87 -212q0 -123 88 -209q72 -74 174 -86zM-20 0v125h352v2q-127 125 -127 303t126 304t304 126t303 -126t125 -304t-125 -303l-2 -2h229v-125h-1185zM706.5 1176.5
q28.5 -27.5 28.5 -68.5t-28.5 -68.5t-67.5 -27.5q-41 0 -69.5 27.5t-28.5 68.5t28.5 68.5t69.5 27.5q39 0 67.5 -27.5z" />
    <glyph glyph-name="uniFED8" unicode="&#x642;" arabic-form="medial" 
d="M600 127l47 -2q117 4 201 88q86 86 86 209q0 125 -87 212t-210 87q-125 0 -212 -87t-87 -212q0 -123 88 -209q72 -74 174 -86zM592 1108q0 -41 -28.5 -68.5t-67.5 -27.5q-41 0 -70 27.5t-29 68.5t29 68.5t70 27.5q39 0 67.5 -27.5t28.5 -68.5zM-20 0v125h352v2
q-127 125 -127 303t126 304t304 126t303 -126t125 -304t-125 -303l-2 -2h229v-125h-1185zM879 1108q0 -41 -29 -68.5t-68 -27.5q-41 0 -69.5 27.5t-28.5 68.5t28.5 68.5t69.5 27.5q39 0 68 -27.5t29 -68.5z" />
    <glyph glyph-name="uniFEDC" unicode="&#x643;" horiz-adv-x="1165" arabic-form="medial" 
d="M668 125q116 4 200 88q86 86 86 209q0 125 -86 213q-84 82 -200 86h-203q-115 -2 -199 -82l-10 16l-88 68l399 518l99 -76l-234 -305h236q170 -4 290 -125q125 -127 125 -305t-125 -303l-2 -2h230v-125h-1206v125h688z" />
    <glyph glyph-name="uniFEE0" unicode="&#x644;" horiz-adv-x="618" arabic-form="medial" 
d="M-20 0v125h411v1104h125v-1104h123v-125h-659z" />
    <glyph glyph-name="uniFEE4" unicode="&#x645;" arabic-form="medial" 
d="M600 59l47 -2q117 4 201 88q86 86 86 209q0 125 -87 212t-210 87q-125 0 -212 -87t-87 -212q0 -123 88 -209q72 -73 174 -86zM877 0q-89 -61 -197 -72q-186 0 -287 72h-413v125h292q-67 102 -67 231q0 179 126 304.5t304 125.5t303 -125.5t125 -304.5q0 -129 -66 -231
h168v-125h-288z" />
    <glyph glyph-name="uniFEE8" unicode="&#x646;" horiz-adv-x="618" arabic-form="medial" 
d="M-20 0v125h411v733h125v-733h123v-125h-659zM537 1108q0 -41 -29 -68.5t-68 -27.5q-41 0 -69.5 27.5t-28.5 68.5t28.5 68.5t69.5 27.5q39 0 68 -27.5t29 -68.5z" />
    <glyph glyph-name="uniFEEC" unicode="&#x647;" horiz-adv-x="1217" arabic-form="medial" 
d="M403 125l158 2q21 10 39 29q49 49 49 116q0 70 -49 119t-119 49q-39 0 -71 -16h-2q-25 -12 -46 -33q-49 -49 -49 -119q0 -67 49 -116q19 -19 41 -31zM250 125q-47 68 -47 156q0 108 76 188q12 154 124 266q125 125 304 125q178 0 303 -126t125 -304t-125 -303l-2 -2h229
v-125h-1257v125h270zM719 125q117 4 201 88q86 86 86 209q0 125 -87.5 212t-209.5 87q-125 0 -211 -86q-39 -39 -60 -82q19 2 39 2q115 0 196 -81t81 -193q0 -86 -45 -156h10z" />
    <glyph glyph-name="uniFEF4" unicode="&#x64a;" horiz-adv-x="618" arabic-form="medial" 
d="M238 -172q0 -41 -29 -68.5t-68 -27.5q-41 0 -69.5 27.5t-28.5 68.5t28.5 68.5t69.5 27.5q39 0 68 -27.5t29 -68.5zM-20 0v125h411v733h125v-733h123v-125h-659zM524 -172q0 -41 -28.5 -68.5t-67.5 -27.5q-41 0 -69.5 27.5t-28.5 68.5t28.5 68.5t69.5 27.5
q39 0 67.5 -27.5t28.5 -68.5z" />
    <glyph glyph-name="uniFB59" unicode="&#x67e;" horiz-adv-x="618" arabic-form="medial" 
d="M-20 0v125h411v733h125v-733h123v-125h-659zM161 -271q-41 0 -70 27.5t-29 68.5t29 68.5t70 27.5q39 0 67.5 -27.5t28.5 -68.5t-28.5 -68.5t-67.5 -27.5zM306 -548q-41 0 -69.5 28t-28.5 69t28.5 68.5t69.5 27.5q39 0 67.5 -27.5t28.5 -68.5t-28.5 -69t-67.5 -28z
M447 -271q-41 0 -69.5 27.5t-28.5 68.5t28.5 68.5t69.5 27.5q39 0 68 -27.5t29 -68.5t-29 -68.5t-68 -27.5z" />
    <glyph glyph-name="uniFB6D" unicode="&#x6a4;" arabic-form="medial" 
d="M600 127l47 -2q117 4 201 88q86 86 86 209q0 125 -87 212t-210 87q-125 0 -212 -87t-87 -212q0 -123 88 -209q72 -74 174 -86zM-20 0v125h352v2q-127 125 -127 303t126 304t304 126t303 -126t125 -304t-125 -303l-2 -2h229v-125h-1185zM561.5 1176.5
q28.5 -27.5 28.5 -68.5t-28.5 -68.5t-67.5 -27.5q-41 0 -70 27.5t-29 68.5t29 68.5t70 27.5q39 0 67.5 -27.5zM848 1176.5q29 -27.5 29 -68.5t-29 -68.5t-68 -27.5q-41 0 -69.5 27.5t-28.5 68.5t28.5 68.5t69.5 27.5q39 0 68 -27.5zM706.5 1453q28.5 -28 28.5 -69
t-28.5 -68.5t-67.5 -27.5q-41 0 -69.5 27.5t-28.5 68.5t28.5 69t69.5 28q39 0 67.5 -28z" />
    <glyph glyph-name="uniFB7D" unicode="&#x686;" horiz-adv-x="1159" arabic-form="medial" 
d="M-20 0v125h667q117 4 201 88q86 86 86 209q0 125 -87 212t-210 87q-125 0 -211 -86q-88 -88 -88 -211h-133v6q0 178 126 304t304 126t303 -126t125 -304t-125 -303l-2 -2h244v-125h-1200zM371 -271q-41 0 -70 27.5t-29 68.5t29 68.5t70 27.5q39 0 67.5 -27.5t28.5 -68.5
t-28.5 -68.5t-67.5 -27.5zM516 -548q-41 0 -69.5 28t-28.5 69t28.5 68.5t69.5 27.5q39 0 67.5 -27.5t28.5 -68.5t-28.5 -69t-67.5 -28zM657 -271q-41 0 -69.5 27.5t-28.5 68.5t28.5 68.5t69.5 27.5q39 0 68 -27.5t29 -68.5t-29 -68.5t-68 -27.5z" />
    <glyph glyph-name="uniFE82" unicode="&#x622;" horiz-adv-x="393" arabic-form="final" 
d="M61 1229h125v-1104h228v-125h-353v1229zM397 1409l-88 -70l-96 123l-158 -127l-166 209l88 70l97 -123l157 127z" />
    <glyph glyph-name="uniFE84" unicode="&#x623;" horiz-adv-x="393" arabic-form="final" 
d="M414 125v-125h-353v1229h125v-1104h228zM193 1466h213v-104h-437v104h31q-23 23 -23 111q0 86 63.5 149.5t156.5 63.5q94 0 147 -64.5t43 -177.5h-90q0 70 -31 101q-28 30 -69 30t-71 -30.5t-30 -75.5t29 -74q31 -31 68 -33z" />
    <glyph glyph-name="uniFE86" unicode="&#x624;" horiz-adv-x="1042" arabic-form="final" 
d="M61 420v10q0 178 125 304t303 126h11q172 -4 295 -125q125 -127 125 -305v-305h143v-125h-154q-26 -109 -110 -193q-127 -124 -305 -124h-11v129h2q125 0 213 88q45 45 66 100h-293q-166 6 -285 127q-120 121 -125 293zM500 721h-13q-122 0 -209.5 -87t-87.5 -212v-2
q0 -121 86 -207q84 -84 201 -88h309v297q0 125 -86 213q-84 82 -200 86zM311 1116h213v-104h-436v104h31q-23 23 -23 111q0 86 63.5 149.5t155.5 63.5q95 0 148 -64.5t43 -177.5h-90q0 70 -31 100q-29 31 -70 31t-70.5 -30.5t-29.5 -75.5t29 -74q30 -31 67 -33z" />
    <glyph glyph-name="uniFE88" unicode="&#x625;" horiz-adv-x="393" arabic-form="final" 
d="M414 125v-125h-353v1229h125v-1104h228zM188 -403h213v-105h-436v105h31q-23 22 -23 110q0 86 63.5 149.5t156.5 63.5q94 0 147 -64.5t43 -177.5h-90q0 70 -31 101q-29 31 -69 31q-41 0 -71 -31t-30 -76t29 -74q31 -30 67 -32z" />
    <glyph glyph-name="uniFE8A" unicode="&#x626;" horiz-adv-x="1333" arabic-form="final" 
d="M1130 629h-337l2 -2q125 -125 125 -303q0 -179 -125 -304.5t-303 -125.5q-179 0 -305 125.5t-126 304.5v6h134q0 -123 88 -211q86 -86 211 -86q122 0 209.5 87t87.5 212q0 123 -86 209q-84 84 -187 88v125h737v-629h99v-125h-224v629zM297 952h213v-104h-436v104h30
q-22 23 -22 111q0 86 63.5 149.5t155.5 63.5q94 0 147.5 -64.5t43.5 -177.5h-91q0 70 -30 101q-29 30 -70 30t-70.5 -30.5t-29.5 -75.5t28 -74q31 -31 68 -33z" />
    <glyph glyph-name="uniFE8E" unicode="&#x627;" horiz-adv-x="393" arabic-form="final" 
d="M414 125v-125h-353v1229h125v-1104h228z" />
    <glyph glyph-name="uniFE90" unicode="&#x628;" horiz-adv-x="1513" arabic-form="final" 
d="M1286 125v733h125v-733h123v-125h-1063q-166 6 -285 127q-125 125 -125 303t125 304t303 126q179 0 305 -126t126 -304v-6h-134q0 123 -88 211q-86 86 -211 86q-122 0 -209.5 -87t-87.5 -212q0 -123 86 -209q84 -84 201 -88v2l316 -2h493zM963 -166q0 -41 -29 -68.5
t-68 -27.5q-41 0 -69.5 27.5t-28.5 68.5t28.5 68.5t69.5 27.5q39 0 68 -27.5t29 -68.5z" />
    <glyph glyph-name="uniFE94" unicode="&#x629;" horiz-adv-x="1042" arabic-form="final" 
d="M61 420v10q0 178 125 304t303 126h11q172 -4 295 -125q125 -127 125 -305v-305h143v-125h-592q-166 6 -285 127q-120 121 -125 293zM500 721h-13q-122 0 -209.5 -87t-87.5 -212v-2q0 -121 86 -207q84 -84 201 -88h309v297q0 125 -86 213q-84 82 -200 86zM455 1108
q0 -41 -29 -68.5t-68 -27.5q-41 0 -69.5 27.5t-28.5 68.5t28.5 68.5t69.5 27.5q39 0 68 -27.5t29 -68.5zM741 1108q0 -41 -28.5 -68.5t-67.5 -27.5q-41 0 -69.5 27.5t-28.5 68.5t28.5 68.5t69.5 27.5q39 0 67.5 -27.5t28.5 -68.5z" />
    <glyph glyph-name="uniFE96" unicode="&#x62a;" horiz-adv-x="1513" arabic-form="final" 
d="M858 1108q0 -41 -28.5 -68.5t-67.5 -27.5q-41 0 -69.5 27.5t-28.5 68.5t28.5 68.5t69.5 27.5q39 0 67.5 -27.5t28.5 -68.5zM1286 125v733h125v-733h123v-125h-1063q-166 6 -285 127q-125 125 -125 303t125 304t303 126q179 0 305 -126t126 -304v-6h-134q0 123 -88 211
q-86 86 -211 86q-122 0 -209.5 -87t-87.5 -212q0 -123 86 -209q84 -84 201 -88v2l316 -2h493zM1145 1108q0 -41 -29 -68.5t-67 -27.5q-41 0 -70 27.5t-29 68.5t29 68.5t70 27.5q38 0 67 -27.5t29 -68.5z" />
    <glyph glyph-name="uniFE9A" unicode="&#x62b;" horiz-adv-x="1513" arabic-form="final" 
d="M858 1108q0 -41 -28.5 -68.5t-67.5 -27.5q-41 0 -69.5 27.5t-28.5 68.5t28.5 68.5t69.5 27.5q39 0 67.5 -27.5t28.5 -68.5zM1286 125v733h125v-733h123v-125h-1063q-166 6 -285 127q-125 125 -125 303t125 304t303 126q179 0 305 -126t126 -304v-6h-134q0 123 -88 211
q-86 86 -211 86q-122 0 -209.5 -87t-87.5 -212q0 -123 86 -209q84 -84 201 -88v2l316 -2h493zM1004 1384q0 -41 -29 -68.5t-68 -27.5q-41 0 -69.5 27.5t-28.5 68.5t28.5 69t69.5 28q39 0 68 -28t29 -69zM1145 1108q0 -41 -29 -68.5t-67 -27.5q-41 0 -70 27.5t-29 68.5
t29 68.5t70 27.5q38 0 67 -27.5t29 -68.5z" />
    <glyph glyph-name="uniFE9E" unicode="&#x62c;" horiz-adv-x="1036" arabic-form="final" 
d="M61 -322v17q0 178 125 303q119 121 285 127h53q117 4 201 88q86 86 86 209q0 125 -87 212t-210 87q-125 0 -211 -86q-88 -88 -88 -211h-133v6q0 178 126 304t304 126t303 -126t125 -304t-125 -303l-2 -2h244v-125h-580q-117 -4 -201 -88q-86 -86 -86 -209v-25h-129z
M594 -166q0 -41 -28.5 -68.5t-67.5 -27.5q-41 0 -70 27.5t-29 68.5t29 68.5t70 27.5q39 0 67.5 -27.5t28.5 -68.5z" />
    <glyph glyph-name="uniFEA2" unicode="&#x62d;" horiz-adv-x="1036" arabic-form="final" 
d="M61 -322v17q0 178 125 303q119 121 285 127h53q117 4 201 88q86 86 86 209q0 125 -87 212t-210 87q-125 0 -211 -86q-88 -88 -88 -211h-133v6q0 178 126 304t304 126t303 -126t125 -304t-125 -303l-2 -2h244v-125h-580q-117 -4 -201 -88q-86 -86 -86 -209v-25h-129z" />
    <glyph glyph-name="uniFEA6" unicode="&#x62e;" horiz-adv-x="1036" arabic-form="final" 
d="M612 1108q0 -41 -28.5 -68.5t-67.5 -27.5q-41 0 -69.5 27.5t-28.5 68.5t28.5 68.5t69.5 27.5q39 0 67.5 -27.5t28.5 -68.5zM61 -322v17q0 178 125 303q119 121 285 127h53q117 4 201 88q86 86 86 209q0 125 -87 212t-210 87q-125 0 -211 -86q-88 -88 -88 -211h-133v6
q0 178 126 304t304 126t303 -126t125 -304t-125 -303l-2 -2h244v-125h-580q-117 -4 -201 -88q-86 -86 -86 -209v-25h-129z" />
    <glyph glyph-name="uniFEAA" unicode="&#x62f;" horiz-adv-x="879" arabic-form="final" 
d="M545 438q-6 115 -86 197q-88 86 -211 86l-2 139q178 0 303 -125q123 -125 125 -297v-313h225v-125h-838v125h484v313z" />
    <glyph glyph-name="uniFEAC" unicode="&#x630;" horiz-adv-x="879" arabic-form="final" 
d="M545 438q-6 115 -86 197q-88 86 -211 86l-2 139q178 0 303 -125q123 -125 125 -297v-313h225v-125h-838v125h484v313zM592 1108q0 -41 -28.5 -68.5t-67.5 -27.5q-41 0 -70 27.5t-29 68.5t29 68.5t70 27.5q39 0 67.5 -27.5t28.5 -68.5z" />
    <glyph glyph-name="uniFEAE" unicode="&#x631;" horiz-adv-x="539" arabic-form="final" 
d="M283 125v692l133 2v-694h143v-125h-153q-27 -109 -111 -193q-127 -124 -305 -124h-10v129h2q124 0 213 88q45 45 65 100z" />
    <glyph glyph-name="uniFEB0" unicode="&#x632;" horiz-adv-x="539" arabic-form="final" 
d="M283 125v692l133 2v-694h143v-125h-153q-27 -109 -111 -193q-127 -124 -305 -124h-10v129h2q124 0 213 88q45 45 65 100zM449 1108q0 -41 -29 -68.5t-68 -27.5q-41 0 -69.5 27.5t-28.5 68.5t28.5 68.5t69.5 27.5q39 0 68 -27.5t29 -68.5z" />
    <glyph glyph-name="uniFB8B" unicode="&#x698;" horiz-adv-x="539" arabic-form="final" 
d="M283 125v692l133 2v-694h143v-125h-153q-27 -109 -111 -193q-127 -124 -305 -124h-10v129h2q124 0 213 88q45 45 65 100zM201.5 1176.5q28.5 -27.5 28.5 -68.5t-28.5 -68.5t-67.5 -27.5q-41 0 -70 27.5t-29 68.5t29 68.5t70 27.5q39 0 67.5 -27.5zM488 1176.5
q29 -27.5 29 -68.5t-29 -68.5t-68 -27.5q-41 0 -69.5 27.5t-28.5 68.5t28.5 68.5t69.5 27.5q39 0 68 -27.5zM346.5 1453q28.5 -28 28.5 -69t-28.5 -68.5t-67.5 -27.5q-41 0 -69.5 27.5t-28.5 68.5t28.5 69t69.5 28q39 0 67.5 -28z" />
    <glyph glyph-name="uniFEB2" unicode="&#x633;" horiz-adv-x="1860" arabic-form="final" 
d="M915 0q-24 -98 -120 -195q-125 -124 -303 -124q-179 0 -305 124.5t-126 303.5q0 178 126 304t305 126h6v-133q-123 0 -211 -89q-86 -86 -86 -211q0 -122 87 -209t212 -87q123 0 209 86q84 84 90 200v742h125v-713h270v713h127v-713h221v733h127v-733h211v-125h-965z" />
    <glyph glyph-name="uniFEB6" unicode="&#x634;" horiz-adv-x="1860" arabic-form="final" 
d="M915 0q-24 -98 -120 -195q-125 -124 -303 -124q-179 0 -305 124.5t-126 303.5q0 178 126 304t305 126h6v-133q-123 0 -211 -89q-86 -86 -86 -211q0 -122 87 -209t212 -87q123 0 209 86q84 84 90 200v762h125v-733h270v713h127v-713h221v713h127v-713h211v-125h-965z
M1233 1481q41 0 69.5 -28t28.5 -69t-28.5 -68.5t-69.5 -27.5q-39 0 -67.5 27.5t-28.5 68.5t28.5 69t67.5 28zM1092 1204q41 0 69.5 -27.5t28.5 -68.5t-28.5 -68.5t-69.5 -27.5q-39 0 -68 27.5t-29 68.5t29 68.5t68 27.5zM1378 1204q41 0 70 -27.5t29 -68.5t-29 -68.5
t-70 -27.5q-39 0 -67.5 27.5t-28.5 68.5t28.5 68.5t67.5 27.5z" />
    <glyph glyph-name="uniFEBA" unicode="&#x635;" horiz-adv-x="1772" arabic-form="final" 
d="M1274 125q117 4 201 88q86 86 86 209q0 125 -87.5 212t-209.5 87q-125 0 -211 -66q-127 -106 -129 -229v-301h350zM924 696q16 21 34 39q125 125 304 125q178 0 303 -126t125 -304t-125 -303l-2 -2h229v-125h-877q-24 -98 -120 -195q-125 -124 -303 -124
q-179 0 -305 124.5t-126 303.5q0 178 126 304t305 126h6v-133q-123 0 -211 -89q-86 -86 -86 -211q0 -122 87 -209t212 -87q123 0 209 86q75 75 88 178v786h127v-164z" />
    <glyph glyph-name="uniFEBE" unicode="&#x636;" horiz-adv-x="1772" arabic-form="final" 
d="M1327 1108q0 -41 -28.5 -68.5t-67.5 -27.5q-41 0 -69.5 27.5t-28.5 68.5t28.5 68.5t69.5 27.5q39 0 67.5 -27.5t28.5 -68.5zM1274 125q117 4 201 88q86 86 86 209q0 125 -87.5 212t-209.5 87q-125 0 -211 -66q-127 -106 -129 -229v-301h350zM924 696q16 21 34 39
q125 125 304 125q178 0 303 -126t125 -304t-125 -303l-2 -2h229v-125h-877q-24 -98 -120 -195q-125 -124 -303 -124q-179 0 -305 124.5t-126 303.5q0 178 126 304t305 126h6v-133q-123 0 -211 -89q-86 -86 -86 -211q0 -122 87 -209t212 -87q123 0 209 86q75 75 88 178v786
h127v-164z" />
    <glyph glyph-name="uniFEC4" unicode="&#x637;" horiz-adv-x="1182" arabic-form="medial" 
d="M684 125q117 4 201 88q86 86 86 209q0 125 -87 212t-210 87q-125 0 -211 -66q-127 -106 -129 -229v-301h350zM207 125v1104h127v-533q16 21 35 39q125 125 303 125t303 -126t125 -304t-125 -303l-2 -2h229v-125h-1141v125h146z" />
    <glyph glyph-name="uniFEC8" unicode="&#x638;" horiz-adv-x="1182" arabic-form="medial" 
d="M772 1108q0 -41 -28.5 -68.5t-67.5 -27.5q-41 0 -69.5 27.5t-28.5 68.5t28.5 68.5t69.5 27.5q39 0 67.5 -27.5t28.5 -68.5zM684 125q117 4 201 88q86 86 86 209q0 125 -87 212t-210 87q-125 0 -211 -66q-127 -106 -129 -229v-301h350zM207 125v1104h127v-533q16 21 35 39
q125 125 303 125t303 -126t125 -304t-125 -303l-2 -2h229v-125h-1141v125h146z" />
    <glyph glyph-name="uniFECA" unicode="&#x639;" arabic-form="final" 
d="M369 109q-164 145 -164 321q0 178 125 304t303 126t304 -126t126 -304v-6h-133q0 123 -88 211q-86 86 -211 86q-123 0 -210 -87t-87 -212q0 -123 86 -209q84 -84 201 -88h544v-125h-688q-117 -4 -201 -88q-86 -86 -86 -209v-25h-129v17q0 178 125 303q80 82 183 111z" />
    <glyph glyph-name="uniFECE" unicode="&#x63a;" arabic-form="final" 
d="M629 1204q41 0 69.5 -27.5t28.5 -68.5t-28.5 -68.5t-69.5 -27.5q-39 0 -68 27.5t-29 68.5t29 68.5t68 27.5zM369 109q-164 145 -164 321q0 178 125 304t303 126t304 -126t126 -304v-6h-133q0 123 -88 211q-86 86 -211 86q-123 0 -210 -87t-87 -212q0 -123 86 -209
q84 -84 201 -88h544v-125h-688q-117 -4 -201 -88q-86 -86 -86 -209v-25h-129v17q0 178 125 303q80 82 183 111z" />
    <glyph glyph-name="uniFED2" unicode="&#x641;" horiz-adv-x="2066" arabic-form="final" 
d="M1522 127l47 -2q117 4 200 88q86 86 86 209q0 125 -87 212t-209 87q-125 0 -212 -87t-87 -212q0 -123 88 -209q71 -74 174 -86zM1657 1108q0 -41 -29 -68.5t-67 -27.5q-41 0 -70 27.5t-29 68.5t29 68.5t70 27.5q38 0 67 -27.5t29 -68.5zM1253 125v2q-127 125 -127 303
t126 304t304 126q179 0 304 -126t125 -304t-125 -303l-2 -2h229v-125h-1616q-166 6 -285 127q-125 125 -125 303t125 304t303 126q179 0 305 -126t126 -304v-6h-134q0 123 -88 211q-86 86 -211 86q-122 0 -209.5 -87t-87.5 -212q0 -123 86 -209q84 -84 201 -88v2l316 -2h460
z" />
    <glyph glyph-name="uniFED6" unicode="&#x642;" horiz-adv-x="1534" arabic-form="final" 
d="M991 721h-12q-123 0 -210 -87t-87 -212v-2q0 -121 86 -207q84 -84 201 -88h309v297q0 125 -86 213q-84 82 -201 86zM977 -193q125 5 213 93q45 45 65 100h-292q-166 6 -285 127q-121 121 -125 293v10q0 178 125 304t303 126h10q172 -4 295 -125q125 -127 125 -305v-305
h143v-125h-153q-27 -109 -111 -193q-127 -124 -305 -124h-514q-166 6 -285 127q-125 124 -125 303q0 178 125 305q64 63 140 94l59 -125q-59 -22 -106 -70q-89 -88 -89 -213q0 -122 86 -208q84 -84 201 -89v3zM905 1108q0 -41 -28.5 -68.5t-67.5 -27.5q-41 0 -69.5 27.5
t-28.5 68.5t28.5 68.5t69.5 27.5q39 0 67.5 -27.5t28.5 -68.5zM1192 1108q0 -41 -28.5 -68.5t-67.5 -27.5q-41 0 -70 27.5t-29 68.5t29 68.5t70 27.5q39 0 67.5 -27.5t28.5 -68.5z" />
    <glyph glyph-name="uniFEDA" unicode="&#x643;" horiz-adv-x="1513" arabic-form="final" 
d="M279 635q-89 -88 -89 -213q0 -123 86 -209q84 -84 201 -88v2l316 -2h493v1102h125v-1102h123v-125h-1063q-166 6 -285 127q-125 125 -125 303t125 305q64 64 140 94l59 -124q-59 -23 -106 -70zM819 539h291v-97h-596v97h90q-76 77 -76 196t86 206t213 87t199 -87t61 -216
h-77q0 88 -54 141q-55 56 -131 56q-71 0 -126.5 -54.5t-55.5 -138.5q0 -80 53 -133q54 -55 123 -57z" />
    <glyph glyph-name="uniFEDE" unicode="&#x644;" horiz-adv-x="1042" arabic-form="final" 
d="M1063 0h-148q-24 -98 -120 -195q-125 -124 -303 -124q-179 0 -305 124.5t-126 303.5q0 178 126 304t305 126h6v-133q-123 0 -211 -89q-86 -86 -86 -211q0 -122 87 -209t212 -87q123 0 209 86q84 84 90 200v1131h125v-1102h139v-125z" />
    <glyph glyph-name="uniFEE2" unicode="&#x645;" horiz-adv-x="1444" arabic-form="final" 
d="M1018 143q88 86 88 209q0 125 -87 212t-212 87q-123 0 -210 -87t-87 -212q0 -123 86 -209q84 -84 201 -88l47 2q102 13 174 86zM451 119q-70 104 -70 237q0 179 125 304.5t303 125.5t304 -125.5t126 -304.5q0 -129 -68 -231h293v-125h-413q-111 -72 -287 -72
q-107 13 -153 33.5t-117 20.5q-125 0 -211 -86q-88 -89 -88 -211h-134v6q0 178 127 305q111 110 263 123z" />
    <glyph glyph-name="uniFEE6" unicode="&#x646;" horiz-adv-x="1042" arabic-form="final" 
d="M1063 0h-148q-24 -98 -120 -195q-125 -124 -303 -124q-179 0 -305 124.5t-126 303.5q0 178 126 304t305 126h6v-133q-123 0 -211 -89q-86 -86 -86 -211q0 -122 87 -209t212 -87q123 0 209 86q84 84 90 200v742h125v-713h139v-125zM645 1012.5q29 -27.5 29 -68.5
t-29 -68.5t-67 -27.5q-41 0 -70 27.5t-29 68.5t29 68.5t70 27.5q38 0 67 -27.5z" />
    <glyph glyph-name="uniFEEA" unicode="&#x647;" horiz-adv-x="1042" arabic-form="final" 
d="M61 420v10q0 178 125 304t303 126h11q172 -4 295 -125q125 -127 125 -305v-305h143v-125h-592q-166 6 -285 127q-120 121 -125 293zM500 721h-13q-122 0 -209.5 -87t-87.5 -212v-2q0 -121 86 -207q84 -84 201 -88h309v297q0 125 -86 213q-84 82 -200 86z" />
    <glyph glyph-name="uniFEEE" unicode="&#x648;" horiz-adv-x="1042" arabic-form="final" 
d="M61 420v10q0 178 125 304t303 126h11q172 -4 295 -125q125 -127 125 -305v-305h143v-125h-154q-26 -109 -110 -193q-127 -124 -305 -124h-11v129h2q125 0 213 88q45 45 66 100h-293q-166 6 -285 127q-120 121 -125 293zM500 721h-13q-122 0 -209.5 -87t-87.5 -212v-2
q0 -121 86 -207q84 -84 201 -88h309v297q0 125 -86 213q-84 82 -200 86z" />
    <glyph glyph-name="uniFEF0" unicode="&#x649;" horiz-adv-x="1333" arabic-form="final" 
d="M1130 629h-337l2 -2q125 -125 125 -303q0 -179 -125 -304.5t-303 -125.5q-179 0 -305 125.5t-126 304.5v6h134q0 -123 88 -211q86 -86 211 -86q122 0 209.5 87t87.5 212q0 123 -86 209q-84 84 -187 88v125h737v-629h99v-125h-224v629z" />
    <glyph glyph-name="uniFEF2" unicode="&#x64a;" horiz-adv-x="1333" arabic-form="final" 
d="M1130 629h-337l2 -2q125 -125 125 -303q0 -179 -125 -304.5t-303 -125.5q-179 0 -305 125.5t-126 304.5v6h134q0 -123 88 -211q86 -86 211 -86q122 0 209.5 87t87.5 212q0 123 -86 209q-84 84 -187 88v125h737v-629h99v-125h-224v629zM413.5 -169q28.5 -28 28.5 -69
t-28.5 -68.5t-67.5 -27.5q-41 0 -69.5 27.5t-28.5 68.5t28.5 69t69.5 28q39 0 67.5 -28zM700.5 -169q28.5 -28 28.5 -69t-28.5 -68.5t-67.5 -27.5q-41 0 -69.5 27.5t-28.5 68.5t28.5 69t69.5 28q39 0 67.5 -28z" />
    <glyph glyph-name="uniFB57" unicode="&#x67e;" horiz-adv-x="1513" arabic-form="final" 
d="M1286 125v733h125v-733h123v-125h-1063q-166 6 -285 127q-125 125 -125 303t125 304t303 126q179 0 305 -126t126 -304v-6h-134q0 123 -88 211q-86 86 -211 86q-122 0 -209.5 -87t-87.5 -212q0 -123 86 -209q84 -84 201 -88v2l316 -2h493zM721 -271q-41 0 -70 27.5
t-29 68.5t29 68.5t70 27.5q39 0 67.5 -27.5t28.5 -68.5t-28.5 -68.5t-67.5 -27.5zM866 -548q-41 0 -69.5 28t-28.5 69t28.5 68.5t69.5 27.5q39 0 67.5 -27.5t28.5 -68.5t-28.5 -69t-67.5 -28zM1007 -271q-41 0 -69.5 27.5t-28.5 68.5t28.5 68.5t69.5 27.5q39 0 68 -27.5
t29 -68.5t-29 -68.5t-68 -27.5z" />
    <glyph glyph-name="uniFB6B" unicode="&#x6a4;" horiz-adv-x="2066" arabic-form="final" 
d="M1522 127l47 -2q117 4 200 88q86 86 86 209q0 125 -87 212t-209 87q-125 0 -212 -87t-87 -212q0 -123 88 -209q71 -74 174 -86zM1253 125v2q-127 125 -127 303t126 304t304 126q179 0 304 -126t125 -304t-125 -303l-2 -2h229v-125h-1616q-166 6 -285 127
q-125 125 -125 303t125 304t303 126q179 0 305 -126t126 -304v-6h-134q0 123 -88 211q-86 86 -211 86q-122 0 -209.5 -87t-87.5 -212q0 -123 86 -209q84 -84 201 -88v2l316 -2h460zM1548 1108q0 -41 -28.5 -68.5t-67.5 -27.5q-41 0 -69.5 27.5t-28.5 68.5t28.5 68.5
t69.5 27.5q39 0 67.5 -27.5t28.5 -68.5zM1694 1384q0 -41 -29 -68.5t-68 -27.5q-41 0 -69.5 27.5t-28.5 68.5t28.5 69t69.5 28q39 0 68 -28t29 -69zM1835 1108q0 -41 -29 -68.5t-67 -27.5q-41 0 -70 27.5t-29 68.5t29 68.5t70 27.5q38 0 67 -27.5t29 -68.5z" />
    <glyph glyph-name="uniFB7B" unicode="&#x686;" horiz-adv-x="1036" arabic-form="final" 
d="M61 -322v17q0 178 125 303q119 121 285 127h53q117 4 201 88q86 86 86 209q0 125 -87 212t-210 87q-125 0 -211 -86q-88 -88 -88 -211h-133v6q0 178 126 304t304 126t303 -126t125 -304t-125 -303l-2 -2h244v-125h-580q-117 -4 -201 -88q-86 -86 -86 -209v-25h-129z
M421 -271q-41 0 -70 27.5t-29 68.5t29 68.5t70 27.5q39 0 67.5 -27.5t28.5 -68.5t-28.5 -68.5t-67.5 -27.5zM566 -548q-41 0 -69.5 28t-28.5 69t28.5 68.5t69.5 27.5q39 0 67.5 -27.5t28.5 -68.5t-28.5 -69t-67.5 -28zM707 -271q-41 0 -69.5 27.5t-28.5 68.5t28.5 68.5
t69.5 27.5q39 0 68 -27.5t29 -68.5t-29 -68.5t-68 -27.5z" />
    <glyph glyph-name="uni0621" unicode="&#x621;" horiz-adv-x="1021" arabic-form="isolated" 
d="M497 125q-115 3 -200 88q-86 86 -86 209q0 125 88 213q86 86 208 86q125 0 211 -86q88 -88 88 -211h134v6q0 180 -125 305t-305 125q-179 0 -304 -125t-125 -305q0 -178 125 -303l2 -2h-147v-125h852v125h-416z" />
    <glyph glyph-name="uni0622" unicode="&#x622;" horiz-adv-x="268" arabic-form="isolated" 
d="M187 0v1229h-125v-1229h125zM203 1624l-162 -129l-98 125l-90 -70l170 -215l162 129l98 -125l90 72z" />
    <glyph glyph-name="uni0623" unicode="&#x623;" horiz-adv-x="268" arabic-form="isolated" 
d="M187 0v1229h-125v-1229h125zM131 1466q-38 4 -67 33t-29 74t31 76q27 30 69 30t70 -30q31 -31 31 -101h90q9 114 -43 178t-148 64q-92 0 -155 -64q-64 -63 -64 -149q0 -88 23 -111h-31v-104h436v104h-213z" />
    <glyph glyph-name="uni0624" unicode="&#x624;" horiz-adv-x="1001" arabic-form="isolated" 
d="M61 420q3 -171 125 -293q121 -121 285 -127h292q-22 -57 -65 -100q-88 -88 -213 -88h-2v-129h10q180 0 305 124q83 83 111 193l10 125v305q0 180 -125 305q-125 122 -295 125h-10q-178 0 -303 -125t-125 -305v-10zM499 721q118 -3 201 -86q86 -89 86 -213v-297h-309
q-116 3 -201 88q-86 86 -86 207v2q0 125 88 213q86 86 209 86h12zM370 1120q-38 3 -67 33q-29 29 -29 74t31 76q27 30 69 30t70 -30q31 -31 31 -101h90q9 114 -43 178t-148 64q-92 0 -155 -64q-64 -63 -64 -149q0 -88 23 -111h-31v-104h436v104h-213z" />
    <glyph glyph-name="uni0625" unicode="&#x625;" horiz-adv-x="268" arabic-form="isolated" 
d="M187 0v1229h-125v-1229h125zM125 -403q-38 3 -67 32t-29 74t31 76q27 31 69 31t70 -31q31 -31 31 -101h90q9 114 -43 179q-52 63 -148 63q-92 0 -155 -63q-64 -64 -64 -150q0 -88 23 -110h-31v-105h436v105h-213z" />
    <glyph glyph-name="uni0626" unicode="&#x626;" horiz-adv-x="1087" arabic-form="isolated" 
d="M1005 604l-26 123l-300 -59l17 -119l8 -8q86 -86 86 -209q0 -125 -86 -211q-88 -88 -211 -88q-125 0 -211 86q-88 88 -88 211h-133v-6q0 -177 127 -304q127 -126 303 -126t303 126q125 125 125 304q0 138 -78 247zM299 586q-38 3 -68 32q-29 29 -29 74t31 76q28 31 70 31
t69 -31q31 -31 31 -100h90q9 113 -43 178q-51 63 -147 63q-92 0 -156 -63q-63 -64 -63 -150q0 -88 22 -110h-31v-105h437v105h-213z" />
    <glyph glyph-name="uni0627" unicode="&#x627;" horiz-adv-x="268" arabic-form="isolated" 
d="M186 0v1229h-125v-1229h125z" />
    <glyph glyph-name="uni0628" unicode="&#x628;" horiz-adv-x="1492" arabic-form="isolated" 
d="M477 127v-2q-116 3 -201 88q-86 86 -86 209q0 125 88 213q86 86 209 86q125 0 211 -86q88 -88 88 -211h133v6q0 180 -125 305t-305 125q-178 0 -303 -125t-125 -305q0 -178 125 -303q121 -121 285 -127h940v858h-125v-733zM933 -96q-26 26 -67 26q-43 0 -70 -26
q-28 -29 -28 -70q0 -39 28 -67q29 -29 70 -29q39 0 67 29q29 28 29 67q0 41 -29 70z" />
    <glyph glyph-name="uni0629" unicode="&#x629;" horiz-adv-x="1001" arabic-form="isolated" 
d="M456 127q-103 13 -174 86q-88 85 -88 209q0 125 88 213q86 86 211 86q122 0 211 -86q86 -89 86 -213q0 -123 -86 -209q-85 -85 -201 -88v2h-47zM419 1178q-26 26 -67 26q-43 0 -70 -26q-28 -29 -28 -70q0 -39 28 -68q29 -28 70 -28q39 0 67 28q29 29 29 68q0 41 -29 70z
M188 125q131 -122 322 -125q163 6 284 127q125 125 125 303q0 180 -125 305t-303 125t-303 -125q-127 -127 -127 -305q0 -176 127 -303v-2zM706 1178q-27 26 -67 26q-43 0 -70 -26q-29 -29 -29 -70q0 -39 29 -68q29 -28 70 -28q38 0 67 28q29 29 29 68q0 41 -29 70z" />
    <glyph glyph-name="uni062A" unicode="&#x62a;" horiz-adv-x="1492" arabic-form="isolated" 
d="M829 1178q-27 26 -68 26q-43 0 -69 -26q-29 -29 -29 -70q0 -39 29 -68q28 -28 69 -28q39 0 68 28q29 29 29 68q0 41 -29 70zM477 127v-2q-116 3 -201 88q-86 86 -86 209q0 125 88 213q86 86 209 86q125 0 211 -86q88 -88 88 -211h133v6q0 180 -125 305t-305 125
q-178 0 -303 -125t-125 -305q0 -178 125 -303q121 -121 285 -127h940v858h-125v-733zM1116 1178q-27 26 -68 26q-43 0 -69 -26q-29 -29 -29 -70q0 -39 29 -68q28 -28 69 -28q39 0 68 28q28 29 28 68q0 41 -28 70z" />
    <glyph glyph-name="uni062B" unicode="&#x62b;" horiz-adv-x="1492" arabic-form="isolated" 
d="M829 1178q-27 26 -68 26q-43 0 -69 -26q-29 -29 -29 -70q0 -39 29 -68q28 -28 69 -28q39 0 68 28q29 29 29 68q0 41 -29 70zM477 127v-2q-116 3 -201 88q-86 86 -86 209q0 125 88 213q86 86 209 86q125 0 211 -86q88 -88 88 -211h133v6q0 180 -125 305t-305 125
q-178 0 -303 -125t-125 -305q0 -178 125 -303q121 -121 285 -127h940v858h-125v-733zM974 1454q-26 27 -67 27q-43 0 -70 -27q-28 -29 -28 -70q0 -38 28 -67q29 -29 70 -29q39 0 67 29q29 29 29 67q0 41 -29 70zM1116 1178q-27 26 -68 26q-43 0 -69 -26q-29 -29 -29 -70
q0 -39 29 -68q28 -28 69 -28q39 0 68 28q28 29 28 68q0 41 -28 70z" />
    <glyph glyph-name="uni062C" unicode="&#x62c;" horiz-adv-x="1144" arabic-form="isolated" 
d="M559 129l-10 -2q-6 -1 -9 -2h-69q-164 -6 -285 -127q-125 -125 -125 -303v-17h129v25q0 123 86 209q85 85 201 88h176q164 6 285 127q124 125 124 303q0 180 -124 305q-125 125 -304 125q-178 0 -303 -125q-127 -127 -127 -305v-6h133q0 123 89 211q86 86 210 86
q122 0 211 -86q86 -89 86 -213q0 -123 -86 -209q-85 -85 -200 -88v2l-88 -2v4zM565 -96q-27 26 -68 26q-43 0 -69 -26q-29 -29 -29 -70q0 -39 29 -67q28 -29 69 -29q39 0 68 29q28 28 28 67q0 41 -28 70z" />
    <glyph glyph-name="uni062D" unicode="&#x62d;" horiz-adv-x="1144" arabic-form="isolated" 
d="M559 129l-10 -2q-6 -1 -9 -2h-69q-164 -6 -285 -127q-125 -125 -125 -303v-17h129v25q0 123 86 209q85 85 201 88h176q164 6 285 127q124 125 124 303q0 180 -124 305q-125 125 -304 125q-178 0 -303 -125q-127 -127 -127 -305v-6h133q0 123 89 211q86 86 210 86
q122 0 211 -86q86 -89 86 -213q0 -123 -86 -209q-85 -85 -200 -88v2l-88 -2v4z" />
    <glyph glyph-name="uni062E" unicode="&#x62e;" horiz-adv-x="1144" arabic-form="isolated" 
d="M706 1178q-27 26 -67 26q-43 0 -70 -26q-29 -29 -29 -70q0 -39 29 -68q29 -28 70 -28q38 0 67 28q29 29 29 68q0 41 -29 70zM559 129l-10 -2q-6 -1 -9 -2h-69q-164 -6 -285 -127q-125 -125 -125 -303v-17h129v25q0 123 86 209q85 85 201 88h176q164 6 285 127
q124 125 124 303q0 180 -124 305q-125 125 -304 125q-178 0 -303 -125q-127 -127 -127 -305v-6h133q0 123 89 211q86 86 210 86q122 0 211 -86q86 -89 86 -213q0 -123 -86 -209q-85 -85 -200 -88v2l-88 -2v4z" />
    <glyph glyph-name="uni062F" unicode="&#x62f;" horiz-adv-x="755" arabic-form="isolated" 
d="M544 125h-483v-125h612v438q-3 172 -125 297q-125 125 -303 125l2 -139q122 0 211 -86q80 -83 86 -197v-313z" />
    <glyph glyph-name="uni0630" unicode="&#x630;" horiz-adv-x="755" arabic-form="isolated" 
d="M544 125h-483v-125h612v438q-3 172 -125 297q-125 125 -303 125l2 -139q122 0 211 -86q80 -83 86 -197v-313zM563 1178q-27 26 -68 26q-43 0 -69 -26q-29 -29 -29 -70q0 -39 29 -68q28 -28 69 -28q39 0 68 28q28 29 28 68q0 41 -28 70z" />
    <glyph glyph-name="uni0631" unicode="&#x631;" horiz-adv-x="530" arabic-form="isolated" 
d="M261 0q-23 -57 -66 -100q-88 -88 -213 -88h-2v-129h10q180 0 305 124q83 83 111 193l10 125v694l-133 -2v-692z" />
    <glyph glyph-name="uniFB8A" unicode="&#x698;" horiz-adv-x="530" arabic-form="isolated" 
d="M261 0q-23 -57 -66 -100q-88 -88 -213 -88h-2v-129h10q180 0 305 124q83 83 111 193l10 125v694l-133 -2v-692zM201.5 1176.5q28.5 -27.5 28.5 -68.5t-28.5 -68.5t-67.5 -27.5q-41 0 -70 27.5t-29 68.5t29 68.5t70 27.5q39 0 67.5 -27.5zM488 1176.5q29 -27.5 29 -68.5
t-29 -68.5t-68 -27.5q-41 0 -69.5 27.5t-28.5 68.5t28.5 68.5t69.5 27.5q39 0 68 -27.5zM346.5 1453q28.5 -28 28.5 -69t-28.5 -68.5t-67.5 -27.5q-41 0 -69.5 27.5t-28.5 68.5t28.5 69t69.5 28q39 0 67.5 -28z" />
    <glyph glyph-name="uni0632" unicode="&#x632;" horiz-adv-x="530" arabic-form="isolated" 
d="M261 0q-23 -57 -66 -100q-88 -88 -213 -88h-2v-129h10q180 0 305 124q83 83 111 193l10 125v694l-133 -2v-692zM420 1178q-26 26 -67 26q-43 0 -70 -26q-29 -29 -29 -70q0 -39 29 -68q29 -28 70 -28q39 0 67 28q29 29 29 68q0 41 -29 70z" />
    <glyph glyph-name="uni0633" unicode="&#x633;" horiz-adv-x="1751" arabic-form="isolated" 
d="M1669 0v838h-127v-713h-221v713h-127v-713h-271v733h-125v-762q-6 -116 -90 -200q-86 -86 -209 -86q-126 0 -211 88q-88 85 -88 208q0 125 86 211q88 89 211 89v133h-6q-178 0 -303 -125q-127 -127 -127 -305q0 -177 127 -304q125 -124 303 -124t303 124q96 97 121 195
h754z" />
    <glyph glyph-name="uni0634" unicode="&#x634;" horiz-adv-x="1751" arabic-form="isolated" 
d="M1669 0v838h-127v-713h-221v713h-127v-713h-271v733h-125v-762q-6 -116 -90 -200q-86 -86 -209 -86q-126 0 -211 88q-88 85 -88 208q0 125 86 211q88 89 211 89v133h-6q-178 0 -303 -125q-127 -127 -127 -305q0 -177 127 -304q125 -124 303 -124t303 124q96 97 121 195
h754zM1165 1454q-29 -29 -29 -70q0 -38 29 -67t67 -29q41 0 70 29t29 67q0 41 -29 70q-27 27 -70 27q-41 0 -67 -27zM1024 1178q-29 -29 -29 -70q0 -39 29 -68q28 -28 67 -28q41 0 70 28q28 29 28 68q0 41 -28 70q-27 26 -70 26q-41 0 -67 -26zM1310 1178q-28 -29 -28 -70
q0 -39 28 -68q29 -28 68 -28q41 0 69 28q29 29 29 68q0 41 -29 70q-26 26 -69 26q-41 0 -68 -26z" />
    <glyph glyph-name="uni0635" unicode="&#x635;" horiz-adv-x="1771" arabic-form="isolated" 
d="M923 426q3 122 129 229q88 66 211 66q122 0 211 -86q86 -89 86 -213q0 -123 -86 -209q-85 -85 -201 -88h-350v301zM923 860h-127v-786q-12 -103 -88 -178q-86 -86 -209 -86q-126 0 -211 88q-88 85 -88 208q0 125 86 211q88 89 211 89v133h-6q-178 0 -303 -125
q-127 -127 -127 -305q0 -177 127 -304q125 -124 303 -124t303 124q96 97 121 195h365q163 6 284 127q125 125 125 303q0 180 -125 305t-303 125t-303 -125q-25 -24 -35 -39v164z" />
    <glyph glyph-name="uni0636" unicode="&#x636;" horiz-adv-x="1771" arabic-form="isolated" 
d="M1298 1178q-27 26 -68 26q-43 0 -69 -26q-29 -29 -29 -70q0 -39 29 -68q28 -28 69 -28q39 0 68 28q29 29 29 68q0 41 -29 70zM923 426q3 122 129 229q88 66 211 66q122 0 211 -86q86 -89 86 -213q0 -123 -86 -209q-85 -85 -201 -88h-350v301zM923 860h-127v-786
q-12 -103 -88 -178q-86 -86 -209 -86q-126 0 -211 88q-88 85 -88 208q0 125 86 211q88 89 211 89v133h-6q-178 0 -303 -125q-127 -127 -127 -305q0 -177 127 -304q125 -124 303 -124t303 124q96 97 121 195h365q163 6 284 127q125 125 125 303q0 180 -125 305t-303 125
t-303 -125q-25 -24 -35 -39v164z" />
    <glyph glyph-name="uni0637" unicode="&#x637;" horiz-adv-x="1181" arabic-form="initial" 
d="M333 426q3 122 129 229q88 66 211 66q122 0 211 -86q86 -89 86 -213q0 -123 -86 -209q-85 -85 -200 -88h-351v301zM333 1229h-127v-1104h-145v-125h629q163 6 284 127q125 125 125 303q0 180 -125 305t-303 125t-303 -125q-24 -24 -35 -39v533z" />
    <glyph glyph-name="uni0638" unicode="&#x638;" horiz-adv-x="1181" arabic-form="initial" 
d="M333 426q3 122 129 229q88 66 211 66q122 0 211 -86q86 -89 86 -213q0 -123 -86 -209q-85 -85 -200 -88h-351v301zM743 1178q-27 26 -68 26q-43 0 -69 -26q-29 -29 -29 -70q0 -39 29 -68q28 -28 69 -28q39 0 68 28q29 29 29 68q0 41 -29 70zM333 1229h-127v-1104h-145
v-125h629q163 6 284 127q125 125 125 303q0 180 -125 305t-303 125t-303 -125q-24 -24 -35 -39v533z" />
    <glyph glyph-name="uni0639" unicode="&#x639;" horiz-adv-x="1144" arabic-form="isolated" 
d="M186 -2q-125 -125 -125 -303v-17h129v25q0 123 86 209q85 85 201 88h559v125h-416q-116 3 -201 88q-86 86 -86 209q0 125 88 213q86 86 209 86q125 0 211 -86q88 -88 88 -211h133v6q0 180 -124 305q-125 125 -306 125q-178 0 -303 -125t-125 -305q0 -176 164 -321
q-103 -28 -182 -111z" />
    <glyph glyph-name="uni063A" unicode="&#x63a;" horiz-adv-x="1144" arabic-form="isolated" 
d="M561 1178q-29 -29 -29 -70q0 -39 29 -68q28 -28 67 -28q41 0 70 28q29 29 29 68q0 41 -29 70q-27 26 -70 26q-41 0 -67 -26zM186 -2q-125 -125 -125 -303v-17h129v25q0 123 86 209q85 85 201 88h559v125h-416q-116 3 -201 88q-86 86 -86 209q0 125 88 213q86 86 209 86
q125 0 211 -86q88 -88 88 -211h133v6q0 180 -124 305q-125 125 -306 125q-178 0 -303 -125t-125 -305q0 -176 164 -321q-103 -28 -182 -111z" />
    <glyph glyph-name="uni0641" unicode="&#x641;" horiz-adv-x="2066" arabic-form="isolated" 
d="M1521 127q-103 13 -174 86q-88 85 -88 209q0 125 88 213q86 86 211 86q122 0 211 -86q86 -89 86 -213q0 -123 -86 -209q-85 -85 -201 -88v2h-47zM1628 1178q-27 26 -68 26q-43 0 -69 -26q-29 -29 -29 -70q0 -39 29 -68q28 -28 69 -28q39 0 68 28q28 29 28 68q0 41 -28 70
zM477 127v-2q-116 3 -201 88q-86 86 -86 209q0 125 88 213q86 86 209 86q125 0 211 -86q88 -88 88 -211h133v6q0 180 -125 305t-305 125q-178 0 -303 -125t-125 -305q0 -178 125 -303q121 -121 285 -127h1103q164 6 285 127q125 125 125 303q0 180 -125 305t-303 125
t-303 -125q-127 -127 -127 -305q0 -176 127 -303v-2z" />
    <glyph glyph-name="uni0642" unicode="&#x642;" horiz-adv-x="1492" arabic-form="isolated" 
d="M991 721q118 -3 200 -86q87 -89 87 -213v-297h-310q-115 3 -200 88q-86 86 -86 207v2q0 125 88 213q86 86 209 86h12zM477 -190v-3q-116 4 -201 89q-86 86 -86 208q0 125 88 213q48 49 107 70l-60 125q-75 -30 -139 -94q-125 -125 -125 -305q0 -179 125 -303
q121 -121 285 -127h514q180 0 305 124q82 83 110 193l11 125v305q0 180 -125 305q-125 122 -295 125h-10q-179 0 -304 -125q-124 -125 -124 -305v-10q3 -171 124 -293q121 -121 285 -127h293q-22 -57 -66 -100q-89 -89 -213 -93zM876 1178q-27 26 -67 26q-43 0 -70 -26
q-29 -29 -29 -70q0 -39 29 -68q29 -28 70 -28q38 0 67 28q29 29 29 68q0 41 -29 70zM1163 1178q-27 26 -68 26q-43 0 -69 -26q-29 -29 -29 -70q0 -39 29 -68q28 -28 69 -28q39 0 68 28q28 29 28 68q0 41 -28 70z" />
    <glyph glyph-name="uni0643" unicode="&#x643;" horiz-adv-x="1492" arabic-form="isolated" 
d="M385 705l-60 124q-75 -30 -139 -94q-125 -125 -125 -305q0 -178 125 -303q121 -121 285 -127h940v1227h-125v-1102l-809 2v-2q-116 3 -201 88q-86 86 -86 209q0 125 88 213q48 48 107 70zM819 539q-72 3 -123 57q-53 53 -53 133q0 84 55 139q56 54 127 54q76 0 131 -56
q53 -53 53 -141h78q9 128 -61 217q-71 86 -199 86q-127 0 -213 -86q-86 -89 -86 -207q0 -121 76 -196h-90v-97h596v97h-291z" />
    <glyph glyph-name="uni0644" unicode="&#x644;" horiz-adv-x="1005" arabic-form="isolated" 
d="M923 125v1102h-125v-1131q-6 -116 -90 -200q-86 -86 -209 -86q-126 0 -211 88q-88 85 -88 208q0 125 86 211q88 89 211 89v133h-6q-178 0 -303 -125q-127 -127 -127 -305q0 -177 127 -304q125 -124 303 -124t303 124q96 97 121 195z" />
    <glyph glyph-name="uni0645" unicode="&#x645;" horiz-adv-x="1320" arabic-form="isolated" 
d="M843 57l-47 -2q-115 3 -200 88q-86 86 -86 209q0 125 88 213q86 86 208 86q124 0 213 -86q86 -89 86 -213t-88 -209q-70 -73 -174 -86zM1171 125q68 101 68 231q0 181 -125 306q-125 124 -305 124q-179 0 -304 -124q-125 -125 -125 -306q0 -134 70 -237
q-152 -13 -262 -123q-127 -127 -127 -305v-6h133q0 122 88 211q86 86 211 86q75 0 119 -21q44 -20 151 -33q175 0 287 72q80 57 121 125z" />
    <glyph glyph-name="uni0646" unicode="&#x646;" horiz-adv-x="1005" arabic-form="isolated" 
d="M923 125v713h-125v-742q-6 -116 -90 -200q-86 -86 -209 -86q-126 0 -211 88q-88 85 -88 208q0 125 86 211q88 89 211 89v133h-6q-178 0 -303 -125q-127 -127 -127 -305q0 -177 127 -304q125 -124 303 -124t303 124q96 97 121 195zM577 1040q-43 0 -70 -26
q-28 -29 -28 -70q0 -39 28 -67q29 -29 70 -29q39 0 68 29q28 28 28 67q0 41 -28 70q-27 26 -68 26z" />
    <glyph glyph-name="uni0647" unicode="&#x647;" horiz-adv-x="1001" arabic-form="isolated" 
d="M456 127q-103 13 -174 86q-88 85 -88 209q0 125 88 213q86 86 211 86q122 0 211 -86q86 -89 86 -213q0 -123 -86 -209q-85 -85 -201 -88v2h-47zM188 125q131 -122 322 -125q163 6 284 127q125 125 125 303q0 180 -125 305t-303 125t-303 -125q-127 -127 -127 -305
q0 -176 127 -303v-2z" />
    <glyph glyph-name="uni0648" unicode="&#x648;" horiz-adv-x="1001" arabic-form="isolated" 
d="M61 420q3 -171 125 -293q121 -121 285 -127h292q-22 -57 -65 -100q-88 -88 -213 -88h-2v-129h10q180 0 305 124q83 83 111 193l10 125v305q0 180 -125 305q-125 122 -295 125h-10q-178 0 -303 -125t-125 -305v-10zM499 721q118 -3 201 -86q86 -89 86 -213v-297h-309
q-116 3 -201 88q-86 86 -86 207v2q0 125 88 213q86 86 209 86h12z" />
    <glyph glyph-name="uni0649" unicode="&#x649;" horiz-adv-x="1087" arabic-form="isolated" 
d="M1005 604l-26 123l-300 -59l17 -119l8 -8q86 -86 86 -209q0 -125 -86 -211q-88 -88 -211 -88q-125 0 -211 86q-88 88 -88 211h-133v-6q0 -177 127 -304q127 -126 303 -126t303 126q125 125 125 304q0 138 -78 247z" />
    <glyph glyph-name="uni064A" unicode="&#x64a;" horiz-adv-x="1087" arabic-form="isolated" 
d="M1005 604l-26 123l-300 -59l17 -119l8 -8q86 -86 86 -209q0 -125 -86 -211q-88 -88 -211 -88q-125 0 -211 86q-88 88 -88 211h-133v-6q0 -177 127 -304q127 -126 303 -126t303 126q125 125 125 304q0 138 -78 247zM346 -141q-43 0 -70 -27q-29 -29 -29 -70q0 -38 29 -67
t70 -29q39 0 67 29q29 29 29 67q0 41 -29 70q-26 27 -67 27zM632 -141q-43 0 -69 -27q-29 -29 -29 -70q0 -38 29 -67q28 -29 69 -29q39 0 68 29t29 67q0 41 -29 70q-27 27 -68 27z" />
    <glyph glyph-name="uniFB56" unicode="&#x67e;" horiz-adv-x="1492" arabic-form="isolated" 
d="M477 127v-2q-116 3 -201 88q-86 86 -86 209q0 125 88 213q86 86 209 86q125 0 211 -86q88 -88 88 -211h133v6q0 180 -125 305t-305 125q-178 0 -303 -125t-125 -305q0 -178 125 -303q121 -121 285 -127h940v858h-125v-733zM731 -271q-41 0 -70 27.5t-29 68.5t29 68.5
t70 27.5q39 0 67.5 -27.5t28.5 -68.5t-28.5 -68.5t-67.5 -27.5zM876 -548q-41 0 -69.5 28t-28.5 69t28.5 68.5t69.5 27.5q39 0 67.5 -27.5t28.5 -68.5t-28.5 -69t-67.5 -28zM1017 -271q-41 0 -69.5 27.5t-28.5 68.5t28.5 68.5t69.5 27.5q39 0 68 -27.5t29 -68.5t-29 -68.5
t-68 -27.5z" />
    <glyph glyph-name="uniFB6A" unicode="&#x6a4;" horiz-adv-x="2066" arabic-form="isolated" 
d="M1521 127q-103 13 -174 86q-88 85 -88 209q0 125 88 213q86 86 211 86q122 0 211 -86q86 -89 86 -213q0 -123 -86 -209q-85 -85 -201 -88v2h-47zM477 127v-2q-116 3 -201 88q-86 86 -86 209q0 125 88 213q86 86 209 86q125 0 211 -86q88 -88 88 -211h133v6
q0 180 -125 305t-305 125q-178 0 -303 -125t-125 -305q0 -178 125 -303q121 -121 285 -127h1103q164 6 285 127q125 125 125 303q0 180 -125 305t-303 125t-303 -125q-127 -127 -127 -305q0 -176 127 -303v-2zM1508 1108q0 -41 -28.5 -68.5t-67.5 -27.5q-41 0 -69.5 27.5
t-28.5 68.5t28.5 68.5t69.5 27.5q39 0 67.5 -27.5t28.5 -68.5zM1654 1384q0 -41 -29 -68.5t-68 -27.5q-41 0 -69.5 27.5t-28.5 68.5t28.5 69t69.5 28q39 0 68 -28t29 -69zM1795 1108q0 -41 -29 -68.5t-67 -27.5q-41 0 -70 27.5t-29 68.5t29 68.5t70 27.5q38 0 67 -27.5
t29 -68.5z" />
    <glyph glyph-name="uniFB7A" unicode="&#x686;" horiz-adv-x="1144" arabic-form="isolated" 
d="M559 129l-10 -2q-6 -1 -9 -2h-69q-164 -6 -285 -127q-125 -125 -125 -303v-17h129v25q0 123 86 209q85 85 201 88h176q164 6 285 127q124 125 124 303q0 180 -124 305q-125 125 -304 125q-178 0 -303 -125q-127 -127 -127 -305v-6h133q0 123 89 211q86 86 210 86
q122 0 211 -86q86 -89 86 -213q0 -123 -86 -209q-85 -85 -200 -88v2l-88 -2v4zM421 -271q-41 0 -70 27.5t-29 68.5t29 68.5t70 27.5q39 0 67.5 -27.5t28.5 -68.5t-28.5 -68.5t-67.5 -27.5zM566 -548q-41 0 -69.5 28t-28.5 69t28.5 68.5t69.5 27.5q39 0 67.5 -27.5
t28.5 -68.5t-28.5 -69t-67.5 -28zM707 -271q-41 0 -69.5 27.5t-28.5 68.5t28.5 68.5t69.5 27.5q39 0 68 -27.5t29 -68.5t-29 -68.5t-68 -27.5z" />
    <glyph glyph-name=".notdef" horiz-adv-x="1024" 
d="M100 0v1434h824v-1434h-824zM150 50h724v1334h-724v-1334zM325 1148q31 28 58 43q53 30 112 30q92 0 148 -47.5t56 -127.5q0 -49 -23 -98.5t-87 -129.5q-63 -80 -99 -132t-36 -99q0 -38 24 -133h-32q-35 97 -35 148q0 76 81.5 218t81.5 217q0 57 -33 90t-91 33
q-38 0 -69 -17q-26 -15 -56 -40v45zM389 334l57 58q11 10 20 10q10 0 22 -11l56 -60q9 -11 9 -20q0 -11 -10 -22l-56 -62q-14 -14 -21 -14q-11 0 -20 10l-61 71q-7 9 -7 18q0 10 11 22z" />
    <glyph glyph-name=".null" horiz-adv-x="0" 
 />
    <glyph glyph-name=".null" horiz-adv-x="0" 
 />
    <glyph glyph-name="nonmarkingreturn" horiz-adv-x="508" 
 />
    <glyph glyph-name="space" unicode=" " horiz-adv-x="508" 
 />
    <glyph glyph-name="space" unicode="&#xa0;" horiz-adv-x="508" 
 />
    <glyph glyph-name="_1" horiz-adv-x="1072" 
d="M905.5 1196q131.5 -183 131.5 -443q0 -259 -131.5 -442t-317.5 -183q-185 0 -316.5 183t-131.5 442q0 260 131.5 443t316.5 183q186 0 317.5 -183z" />
    <glyph glyph-name="_2" horiz-adv-x="854" 
d="M725.5 1240q123.5 -137 123.5 -330q0 -194 -123.5 -330.5t-298.5 -136.5t-298.5 136.5t-123.5 330.5q0 193 123.5 330t298.5 137t298.5 -137z" />
    <glyph glyph-name="_3" horiz-adv-x="854" 
d="M725.5 1240q123.5 -137 123.5 -330q0 -194 -123.5 -330.5t-298.5 -136.5t-298.5 136.5t-123.5 330.5q0 193 123.5 330t298.5 137t298.5 -137z" />
    <glyph glyph-name="_4" horiz-adv-x="854" 
d="M725.5 1240q123.5 -137 123.5 -330q0 -194 -123.5 -330.5t-298.5 -136.5t-298.5 136.5t-123.5 330.5q0 193 123.5 330t298.5 137t298.5 -137z" />
    <glyph glyph-name="_5" horiz-adv-x="854" 
d="M725.5 1240q123.5 -137 123.5 -330q0 -194 -123.5 -330.5t-298.5 -136.5t-298.5 136.5t-123.5 330.5q0 193 123.5 330t298.5 137t298.5 -137z" />
    <glyph glyph-name="_6" horiz-adv-x="854" 
d="M725.5 1240q123.5 -137 123.5 -330q0 -194 -123.5 -330.5t-298.5 -136.5t-298.5 136.5t-123.5 330.5q0 193 123.5 330t298.5 137t298.5 -137z" />
    <glyph glyph-name="_7" horiz-adv-x="854" 
d="M725.5 1240q123.5 -137 123.5 -330q0 -194 -123.5 -330.5t-298.5 -136.5t-298.5 136.5t-123.5 330.5q0 193 123.5 330t298.5 137t298.5 -137z" />
    <glyph glyph-name="_8" horiz-adv-x="854" 
d="M725.5 1240q123.5 -137 123.5 -330q0 -194 -123.5 -330.5t-298.5 -136.5t-298.5 136.5t-123.5 330.5q0 193 123.5 330t298.5 137t298.5 -137z" />
    <glyph glyph-name="_9" horiz-adv-x="854" 
d="M725.5 1240q123.5 -137 123.5 -330q0 -194 -123.5 -330.5t-298.5 -136.5t-298.5 136.5t-123.5 330.5q0 193 123.5 330t298.5 137t298.5 -137z" />
    <glyph glyph-name="uni0660" unicode="&#x660;" horiz-adv-x="305" 
d="M61 539v-146h162v146h-162z" />
    <glyph glyph-name="uni0661" unicode="&#x661;" horiz-adv-x="305" 
d="M223 1083v146h-162v-1229h125v1083h37z" />
    <glyph glyph-name="uni0662" unicode="&#x662;" horiz-adv-x="1001" 
d="M186 817q2 115 88 201t209 86q125 0 213 -86q86 -88 86 -211l139 -2q0 178 -125 303t-305 125q-178 0 -303 -125q-121 -121 -127 -285v-823h125l2 817h-2z" />
    <glyph glyph-name="uni0663" unicode="&#x663;" horiz-adv-x="1013" 
d="M931 596v637h-125v-512h-270v508h-127v-508h-221v508h-127l2 -1229h125v596h743z" />
    <glyph glyph-name="uni0664" unicode="&#x664;" horiz-adv-x="825" 
d="M178 578q-101 -99 -101 -244q0 -141 103 -244q100 -100 241 -100q144 0 244 100q53 53 78 117l-117 59q-12 -37 -51 -82q-65 -59 -152 -59q-88 0 -151 63q-64 62 -64 152q0 88 64 152q63 63 151 63h173v123h-189q-86 0 -151 65q-64 64 -64 152q0 90 64 154q65 61 151 61
q88 0 152 -61q37 -41 51 -80l117 59q-21 62 -76 117q-101 98 -246 98q-141 0 -242 -100q-102 -103 -102 -244q0 -143 100 -244q19 -16 56 -45q-21 -14 -39 -32z" />
    <glyph glyph-name="uni0665" unicode="&#x665;" horiz-adv-x="1001" 
d="M456 270q-104 13 -174 86q-88 86 -88 209q0 125 88 213q86 86 211 86q123 0 211 -86q86 -88 86 -213q0 -123 -86 -209t-201 -88v2h-47zM188 268q131 -121 322 -125q163 7 284 127q125 125 125 303q0 181 -125 306t-303 125t-303 -125q-127 -127 -127 -306
q0 -176 127 -303v-2z" />
    <glyph glyph-name="uni0666" unicode="&#x666;" horiz-adv-x="755" 
d="M548 1083v-1083h125v1229h-612v-146h487z" />
    <glyph glyph-name="uni0667" unicode="&#x667;" horiz-adv-x="1015" 
d="M589 2l344 1180l-135 -15l-301 -1038l-305 1045l-131 8l344 -1180h184z" />
    <glyph glyph-name="uni0668" unicode="&#x668;" horiz-adv-x="1015" 
d="M405 1182l-344 -1180l131 8l305 1045l301 -1039l135 -14l-344 1180h-184z" />
    <glyph glyph-name="uni0669" unicode="&#x669;" horiz-adv-x="1001" 
d="M499 1225h-10q-178 0 -303 -125q-127 -127 -127 -303v-11q2 -170 125 -294q125 -125 305 -125h305v-369h125v817q-6 164 -127 285q-123 123 -293 125zM198 786v13q0 123 88 211q86 86 211 86h2q121 0 207 -86t88 -201v-309h-297q-123 0 -213 86q-82 82 -86 200z" />
    <glyph glyph-name="_10" horiz-adv-x="854" 
d="M725.5 1240q123.5 -137 123.5 -330q0 -194 -123.5 -330.5t-298.5 -136.5t-298.5 136.5t-123.5 330.5q0 193 123.5 330t298.5 137t298.5 -137z" />
    <glyph glyph-name="_11" horiz-adv-x="854" 
d="M725.5 1240q123.5 -137 123.5 -330q0 -194 -123.5 -330.5t-298.5 -136.5t-298.5 136.5t-123.5 330.5q0 193 123.5 330t298.5 137t298.5 -137z" />
    <glyph glyph-name="uni064B" unicode="&#x64b;" horiz-adv-x="0" 
d="M0 1800v-112h496v112h-496zM0 1634v-112h496v112h-496z" />
    <glyph glyph-name="uni064C" unicode="&#x64c;" horiz-adv-x="0" 
d="M451 1653q-19 18 -19 47t21 49q18 18 47 18q27 0 47 -18q21 -20 21 -49t-21 -47q-20 -21 -47 -21q-35 4 -49 21zM94 1657q-14 12 -14 35q0 22 14 37q15 14 37 14q23 0 37 -14q15 -15 15 -37q0 -23 -15 -37q-14 -15 -37 -15q-26 5 -37 17zM252 1640q8 25 8 56q0 55 -37 94
q-36 37 -92 37q-51 0 -92 -37q-39 -39 -39 -94q0 -31 8 -49h-18v-113h510q74 0 125 51q49 49 49 121q0 74 -49 125q-51 49 -125 49q-70 0 -123 -49q-51 -51 -51 -125q0 -35 12 -66h-86z" />
    <glyph glyph-name="uni064D" unicode="&#x64d;" horiz-adv-x="0" 
d="M0 -514v-113h496v113h-496zM0 -680v-113h496v113h-496z" />
    <glyph glyph-name="uni064E" unicode="&#x64e;" horiz-adv-x="0" 
d="M0 1634v-112h496v112h-496z" />
    <glyph glyph-name="uni064F" unicode="&#x64f;" horiz-adv-x="0" 
d="M382 1524q78 0 131 53q54 53 54 129q0 78 -54 131q-53 53 -131 53q-75 0 -129 -53q-55 -51 -55 -131q0 -39 14 -70h-184v-112h354zM331 1649q-20 20 -20 51t20 51q21 21 51 21q31 0 52 -21q20 -20 20 -51t-20 -51q-21 -21 -52 -21q-37 4 -51 21z" />
    <glyph glyph-name="uni0650" unicode="&#x650;" horiz-adv-x="0" 
d="M0 -514v-113h496v113h-496z" />
    <glyph glyph-name="uni0651" unicode="&#x651;" horiz-adv-x="0" 
d="M131 1784h-115v-275h506v293h-113v-180h-78v162h-112v-162h-88v162z" />
    <glyph glyph-name="uni0652" unicode="&#x652;" horiz-adv-x="0" 
d="M125 1626q-21 21 -21 51q0 29 21 49q20 21 49 21q30 0 51 -21q20 -20 20 -49q0 -30 -20 -51q-21 -20 -51 -20q-35 4 -49 20zM61 1571q47 -41 113 -43q67 0 112 45t45 110q0 68 -45 113t-112 45q-66 0 -111 -45q-47 -47 -47 -113q0 -73 45 -112z" />
    <glyph glyph-name="uni0640" unicode="&#x640;" horiz-adv-x="266" 
d="M276 125h-286v-125h286v125z" />
    <glyph glyph-name="_12" horiz-adv-x="854" 
d="M725.5 1240q123.5 -137 123.5 -330q0 -194 -123.5 -330.5t-298.5 -136.5t-298.5 136.5t-123.5 330.5q0 193 123.5 330t298.5 137t298.5 -137z" />
    <glyph glyph-name="_13" horiz-adv-x="854" 
d="M725.5 1240q123.5 -137 123.5 -330q0 -194 -123.5 -330.5t-298.5 -136.5t-298.5 136.5t-123.5 330.5q0 193 123.5 330t298.5 137t298.5 -137z" />
    <glyph glyph-name="A" unicode="A" horiz-adv-x="1191" 
d="M556 1428q69 0 102 -139q454 -1182 458 -1210v-11q0 -56 -71 -68h-4q-66 0 -94 128l-169 439h-440l-206 -544q-30 -23 -53 -23h-8q-71 13 -71 71v4l128 346q335 873 364 969q34 38 64 38zM556 1142l-158 -428h323v4l-161 424h-4z" />
    <glyph glyph-name="B" unicode="B" horiz-adv-x="998" 
d="M127 1432l18 -3h230l15 3q172 0 294 -162q61 -90 61 -196v-11q0 -129 -102 -245q245 -135 245 -392q0 -258 -268 -396q-86 -30 -154 -30h-339q-72 13 -72 72v1285q11 72 72 72v3zM202 1282v-423h139q185 0 238 132q15 38 15 76v11q0 146 -170 200l-79 4h-143zM202 712
v-565h196q216 0 290 124q49 69 49 155v7q0 203 -222 272l-106 7h-207z" />
    <glyph glyph-name="C" unicode="C" horiz-adv-x="1363" 
d="M777 1436q223 0 416 -136q15 -29 15 -45v-8q0 -64 -79 -72h-4l-132 68q-132 42 -216 42q-269 0 -465 -246q-98 -165 -98 -321q0 -315 295 -499q131 -68 261 -68h11q166 0 336 106h23q68 -15 68 -68v-11q0 -80 -253 -155q-79 -23 -166 -23h-19q-355 0 -594 329
q-113 190 -113 389q0 373 340 608q182 110 374 110z" />
    <glyph glyph-name="D" unicode="D" horiz-adv-x="1195" 
d="M127 1441l19 -4h193l42 4q323 0 561 -281q152 -197 152 -447q0 -344 -303 -580q-192 -133 -406 -133h-258q-72 13 -72 72v1293q11 72 72 72v4zM203 1293v-1145h163q361 0 535 349q45 119 45 227q0 261 -231 455q-143 114 -425 114h-87z" />
    <glyph glyph-name="E" unicode="E" horiz-adv-x="1094" 
d="M135 1442l19 -4h744l15 4q65 0 76 -83q-15 -69 -83 -69h-695v-512h455l54 4q51 0 68 -76q0 -50 -61 -76l-76 4h-440v-486h713q53 0 65 -80q-20 -68 -68 -68h-786q-72 13 -72 72v1294q11 72 72 72v4z" />
    <glyph glyph-name="F" unicode="F" horiz-adv-x="1031" 
d="M127 1442l19 -4h744l15 4q65 0 76 -83q-15 -69 -83 -69h-695v-512h455l54 4q51 0 68 -76q0 -50 -61 -76l-76 4h-440v-539l4 -23q-17 -72 -72 -72h-8q-72 13 -72 72v1294q11 72 72 72v4z" />
    <glyph glyph-name="G" unicode="G" horiz-adv-x="1292" 
d="M745 1436q229 0 412 -128q19 -26 19 -49v-4q0 -58 -76 -72q-12 0 -147 64q-88 34 -170 34h-61q-211 0 -404 -204q-125 -171 -125 -351v-15q0 -294 272 -480q142 -80 284 -80h15q140 0 280 76v344h-273q-71 12 -71 72v3q12 72 71 72h352q56 0 68 -72v-419q0 -92 -45 -114
q-193 -113 -375 -113h-22q-355 0 -594 329q-113 186 -113 389q0 361 321 597q197 121 382 121z" />
    <glyph glyph-name="H" unicode="H" horiz-adv-x="1186" 
d="M110 1433h15q68 -14 68 -60v-598h712v587q12 71 68 71h11q68 -13 68 -68v-1301q0 -49 -72 -64h-4q-71 13 -71 72v560h-712v-564q0 -56 -71 -68h-4q-58 0 -72 76v1274q9 83 64 83z" />
    <glyph glyph-name="I" unicode="I" horiz-adv-x="539" 
d="M132 1448l19 -3h142l15 3q76 -16 76 -76q-13 -76 -72 -76h-16v-1147h23q50 0 65 -73v-4q-13 -72 -72 -72h-180q-72 13 -72 72v4q15 73 65 73h23v1147h-16q-63 0 -72 80v4q0 47 72 68z" />
    <glyph glyph-name="J" unicode="J" horiz-adv-x="1022" 
d="M862 1439h12q55 0 68 -72v-923q0 -239 -224 -383q-105 -61 -216 -61h-19q-220 0 -369 213q-68 113 -68 235q16 72 65 72h15q72 0 72 -118q6 -82 99 -182q91 -72 197 -72q211 0 289 220q11 40 11 80v923q13 68 68 68z" />
    <glyph glyph-name="K" unicode="K" horiz-adv-x="1112" 
d="M134 1434h3q72 -12 72 -68v-653q700 699 706 699l27 4h7q68 -13 68 -68v-12q0 -37 -79 -102l-465 -468l533 -660l3 -23v-11q0 -56 -71 -68h-4q-45 0 -125 117l-445 540l-155 -159v-434q0 -56 -72 -68h-3q-58 0 -72 75v1284q14 75 72 75z" />
    <glyph glyph-name="L" unicode="L" horiz-adv-x="997" 
d="M110 1433h15q68 -14 68 -60v-1226h617q61 0 72 -79q-20 -68 -72 -68h-692q-58 0 -72 76v1274q9 83 64 83z" />
    <glyph glyph-name="M" unicode="M" horiz-adv-x="1490" 
d="M124 1432h15q59 0 83 -98l480 -1073q19 22 336 748l186 400q22 23 49 23h15q55 0 64 -83v-1273q-14 -76 -72 -76h-4q-71 12 -71 68v941h-4q-423 -960 -438 -983q-29 -26 -57 -26q-66 0 -117 159l-378 846h-4v-937q0 -56 -71 -68h-4q-58 0 -72 76v1273q9 83 64 83z" />
    <glyph glyph-name="N" unicode="N" horiz-adv-x="1321" 
d="M102 1431h15q48 0 83 -75q56 -63 821 -1051q8 0 8 -11l3 -4h4v1073q13 68 68 68h11q56 0 68 -71v-1285q0 -62 -79 -75q-43 0 -132 132l-787 1005v-1065q0 -56 -72 -68h-3q-58 0 -72 75v1269q9 83 64 83z" />
    <glyph glyph-name="O" unicode="O" horiz-adv-x="1595" 
d="M756 1435q363 0 607 -336q110 -191 110 -385q0 -359 -325 -597q-184 -117 -385 -117h-15q-370 0 -604 344q-106 174 -106 377q0 343 302 578q196 136 416 136zM185 710q0 -274 242 -461q151 -102 321 -102h19q268 0 453 238q106 153 106 333q0 309 -283 490
q-140 80 -287 80q-283 0 -469 -246q-102 -147 -102 -332z" />
    <glyph glyph-name="P" unicode="P" horiz-adv-x="963" 
d="M110 1438h346q202 0 345 -209q53 -107 53 -193v-27q0 -189 -171 -326q-116 -80 -227 -80h-262v-535q0 -55 -72 -68h-4q-58 0 -72 76v1278q9 84 64 84zM194 1290v-539h235q190 0 262 182q15 38 15 91q0 167 -171 247q-42 19 -98 19h-243z" />
    <glyph glyph-name="Q" unicode="Q" horiz-adv-x="1599" 
d="M764 1435q363 0 608 -336q109 -190 109 -385q0 -233 -155 -442v-4q159 -156 159 -189v-7q0 -56 -76 -72q-44 0 -143 121q-29 23 -42 45q-212 -166 -453 -166h-15q-369 0 -604 344q-106 174 -106 377q0 343 302 578q197 136 416 136zM193 710q0 -274 242 -461
q151 -102 321 -102h19q188 0 344 125q-153 166 -170 193v26q13 68 68 68h11q38 0 125 -106l71 -72h4q106 162 106 337q0 309 -283 491q-139 79 -287 79q-283 0 -469 -246q-102 -147 -102 -332z" />
    <glyph glyph-name="R" unicode="R" horiz-adv-x="976" 
d="M106 1435h315q201 0 329 -212q41 -82 41 -171v-15q0 -198 -193 -325l-37 -19q344 -593 344 -606v-19q0 -56 -72 -68h-4q-54 0 -113 129l-311 530h-215v-591q0 -56 -72 -68h-4q-58 0 -72 76v1275q9 84 64 84zM190 1291v-485h215q179 0 235 193l4 31v30q0 142 -159 216
q-45 15 -140 15h-155z" />
    <glyph glyph-name="S" unicode="S" horiz-adv-x="926" 
d="M454 1437q186 0 310 -168l4 -16v-23q0 -49 -73 -61q-30 0 -103 81q-66 42 -126 42h-23q-126 0 -191 -134q-15 -32 -15 -65v-31q0 -145 175 -210q126 0 272 -118q141 -143 141 -314q0 -210 -180 -344q-110 -76 -244 -76q-217 0 -359 187l-8 31q13 72 73 72q40 0 103 -80
q94 -65 172 -65h34q152 0 245 172q15 56 15 84v38q0 151 -172 245l-195 54q-218 125 -218 328v27q0 200 214 313q80 31 149 31z" />
    <glyph glyph-name="T" unicode="T" horiz-adv-x="1225" 
d="M102 1436h933q68 -13 68 -68v-15q0 -55 -83 -64h-376v-1221q0 -56 -72 -68h-3q-58 0 -72 76v1213h-383q-76 15 -76 75q16 72 64 72z" />
    <glyph glyph-name="U" unicode="U" horiz-adv-x="1168" 
d="M104 1433h15q68 -14 68 -60v-806q0 -260 148 -348q93 -72 208 -72q221 0 333 227q23 71 23 148v840q12 71 68 71h11q68 -13 68 -68v-881q0 -225 -216 -393q-136 -91 -276 -91h-26q-235 0 -409 231q-79 124 -79 306v813q9 83 64 83z" />
    <glyph glyph-name="V" unicode="V" horiz-adv-x="1246" 
d="M114 1441q62 0 102 -159l372 -986h3l417 1115q31 30 61 30h4q58 0 72 -76l-478 -1289q-17 -76 -76 -76h-3q-68 0 -103 148q-451 1190 -451 1213v8q0 60 80 72z" />
    <glyph glyph-name="W" unicode="W" horiz-adv-x="1777" 
d="M102 1436h16q64 0 83 -114l280 -973h8q292 1031 311 1061q25 26 53 26h11q67 0 87 -136q27 -74 277 -955h4l307 1057q27 34 53 34h15q68 -14 68 -60v-19l-383 -1327q-31 -30 -60 -30h-4q-71 0 -91 140q-246 836 -277 959h-3l-307 -1065q-28 -34 -61 -34h-15
q-62 0 -84 144q-325 1106 -352 1220q16 72 64 72z" />
    <glyph glyph-name="X" unicode="X" horiz-adv-x="1300" 
d="M93 1437h16q44 0 72 -56l425 -543l458 588q20 11 38 11h12q55 0 68 -72v-3q0 -33 -102 -152l-383 -493l477 -611l8 -30v-4q-13 -72 -72 -72h-4q-49 0 -83 72l-417 531l-459 -588q-20 -15 -42 -15h-4q-72 13 -72 72v11q0 25 163 224l322 417q-470 596 -481 619l-4 22
q16 72 64 72z" />
    <glyph glyph-name="Y" unicode="Y" horiz-adv-x="1153" 
d="M106 1433h16q49 0 79 -72l345 -516h4q372 562 387 573q20 15 34 15h23q46 0 64 -72q0 -32 -129 -209l-307 -458v-611q-9 -83 -64 -83h-16q-49 0 -68 61v621q0 14 -159 251l-269 405l-4 23q16 72 64 72z" />
    <glyph glyph-name="Z" unicode="Z" horiz-adv-x="1271" 
d="M98 1437h1021q55 0 68 -72v-3q0 -29 -83 -126l-842 -1088h853q72 -11 72 -72v-4q-13 -72 -72 -72h-1009q-60 0 -72 80q0 28 182 254l740 956h-846q-76 15 -76 75q16 72 64 72z" />
    <glyph glyph-name="_14" horiz-adv-x="854" 
d="M725.5 1240q123.5 -137 123.5 -330q0 -194 -123.5 -330.5t-298.5 -136.5t-298.5 136.5t-123.5 330.5q0 193 123.5 330t298.5 137t298.5 -137z" />
    <glyph glyph-name="_15" horiz-adv-x="854" 
d="M725.5 1240q123.5 -137 123.5 -330q0 -194 -123.5 -330.5t-298.5 -136.5t-298.5 136.5t-123.5 330.5q0 193 123.5 330t298.5 137t298.5 -137z" />
    <glyph glyph-name="a" unicode="a" horiz-adv-x="1199" 
d="M554 1023q290 0 459 -284q52 -115 52 -239v-433q0 -55 -71 -67h-4q-48 0 -71 56v4l4 93v4q-165 -157 -355 -157h-29q-260 0 -434 261q-63 126 -63 254q0 285 280 452q119 56 232 56zM188 519v-11q0 -223 224 -336q71 -26 127 -26h29q186 0 307 186q44 88 44 168v15
q0 215 -212 329q-74 33 -153 33h-4q-226 0 -340 -235q-22 -73 -22 -123z" />
    <glyph glyph-name="b" unicode="b" horiz-adv-x="1230" 
d="M141 1432h11q68 -15 68 -65v-491q165 159 371 159q199 0 362 -151q155 -163 155 -366q0 -291 -276 -458q-119 -60 -230 -60h-30q-209 0 -389 196q-110 147 -110 348v823q0 50 68 65zM220 529v-19q0 -231 242 -344q65 -19 117 -19h23q225 0 340 242q19 73 19 113v23
q0 230 -246 344q-75 19 -117 19h-15q-225 0 -340 -238q-23 -67 -23 -121z" />
    <glyph glyph-name="c" unicode="c" horiz-adv-x="1036" 
d="M547 1026q198 0 360 -149q11 -20 11 -38v-4q-13 -71 -71 -71h-4q-27 0 -120 71q-83 42 -165 42h-22q-218 0 -330 -229q-26 -77 -26 -139q0 -222 229 -337q69 -26 146 -26q129 0 254 105l30 7h12q55 0 67 -71v-3q0 -77 -240 -169q-81 -15 -120 -15h-30q-207 0 -385 195
q-109 154 -109 318q0 250 221 420q141 93 292 93z" />
    <glyph glyph-name="d" unicode="d" horiz-adv-x="1200" 
d="M982 1432h15q68 -14 68 -61v-748l4 -128q0 -148 -121 -310q-171 -185 -385 -185h-30q-209 0 -389 196q-110 156 -110 322q0 251 223 423q142 94 295 94q197 0 370 -155v427l-4 60q21 65 64 65zM181 529v-19q0 -231 242 -344q65 -19 117 -19h23q225 0 340 242
q19 73 19 113v23q0 230 -246 344q-75 19 -117 19h-15q-225 0 -340 -238q-23 -67 -23 -121z" />
    <glyph glyph-name="e" unicode="e" horiz-adv-x="1166" 
d="M543 1025q296 0 460 -281q56 -110 56 -239v-19q-13 -75 -71 -75h-789q44 -149 190 -228q86 -33 161 -33q87 0 199 56h22q67 -13 67 -68v-11q0 -92 -269 -127h-26q-276 0 -442 258q-67 122 -67 255q0 281 266 448q129 64 243 64zM187 557h719q0 77 -90 199
q-123 116 -243 116h-41q-180 0 -296 -176q-40 -70 -49 -139z" />
    <glyph glyph-name="f" unicode="f" horiz-adv-x="866" 
d="M598 1437h91q52 0 64 -80q0 -51 -76 -68h-57q-138 0 -182 -152l-3 -79v-53h163l60 3q48 0 65 -72v-11q0 -48 -69 -65h-219v-750l3 -42q0 -51 -75 -68q-52 0 -76 64l4 46v750h-198q-52 0 -64 80q0 38 61 68l75 -3h122v68q0 254 223 348z" />
    <glyph glyph-name="g" unicode="g" horiz-adv-x="1208" 
d="M548 1021q227 0 394 -189q115 -158 115 -298l-4 -126v-449q0 -126 -193 -275q-149 -97 -312 -97q-279 0 -461 249q-33 55 -33 74v11q0 49 67 64h11q50 0 85 -93q134 -168 331 -168q237 0 357 216l7 48v167q-165 -152 -353 -152h-30q-205 0 -382 193q-108 153 -108 316
q0 248 219 416q140 93 290 93zM184 523v-18q0 -227 238 -338q64 -19 115 -19h22q222 0 335 238q18 71 18 111v23q0 226 -241 338q-75 18 -116 18h-14q-222 0 -335 -234q-22 -65 -22 -119z" />
    <glyph glyph-name="h" unicode="h" horiz-adv-x="1125" 
d="M137 1430h15q68 -14 68 -60v-461q145 125 310 125q252 0 403 -238q57 -106 57 -200v-528q0 -56 -72 -68h-3q-54 0 -72 68v506q0 204 -211 294q-51 15 -102 15q-210 0 -295 -223q-15 -48 -15 -158v-434q0 -56 -72 -68h-3q-54 0 -72 68v1291q15 71 64 71z" />
    <glyph glyph-name="i" unicode="i" horiz-adv-x="431" 
d="M177 1286q72 -18 72 -64v-22q0 -53 -79 -64q-51 0 -68 75q15 75 75 75zM177 1030q72 -18 72 -64v-898q0 -56 -72 -68h-4q-57 0 -71 75v869q9 86 75 86z" />
    <glyph glyph-name="j" unicode="j" horiz-adv-x="656" 
d="M436 1277q74 -15 74 -74q0 -62 -78 -74q-66 19 -66 63v22q0 45 70 63zM440 1026q70 -14 70 -70v-928q0 -276 -262 -403q-92 -33 -159 -33l-4 4h-4l-3 -4h-4q-63 0 -74 81q0 55 81 67q208 0 277 210l8 111v895q0 58 74 70z" />
    <glyph glyph-name="k" unicode="k" horiz-adv-x="1056" 
d="M141 1435h15q69 -15 69 -61v-746q535 354 624 405h19q60 0 72 -79q0 -46 -121 -110q-294 -199 -307 -201v-3l424 -538l4 -23v-3q-13 -72 -72 -72h-7q-44 0 -133 128l-341 424h-3l-159 -102v-386q0 -56 -72 -68h-4q-54 0 -72 68v1295q15 72 64 72z" />
    <glyph glyph-name="l" unicode="l" horiz-adv-x="473" 
d="M129 1427h15q68 -14 68 -60v-1220h79q49 0 64 -72v-3q-12 -72 -72 -72h-146q-58 0 -72 75v1270q9 82 64 82z" />
    <glyph glyph-name="m" unicode="m" horiz-adv-x="1675" 
d="M137 1006q70 -18 70 -62v-37q122 99 265 99q190 0 334 -176q59 109 242 165l84 11q230 0 364 -220q44 -92 44 -176v-548q0 -48 -70 -62h-3q-70 12 -70 70v532q0 181 -191 250l-51 7h-37q-152 0 -232 -176q-11 -39 -11 -66v-544q-13 -73 -69 -73h-4q-70 12 -70 66v452
q0 188 -51 235q-79 106 -206 106h-11q-175 0 -246 -187q-11 -45 -11 -118v-488q0 -54 -70 -66h-3q-56 0 -70 73v849q8 84 73 84z" />
    <glyph glyph-name="n" unicode="n" horiz-adv-x="1197" 
d="M153 1023q71 -18 71 -64v-82q162 146 354 146q211 0 374 -176q119 -147 119 -309v-475q0 -49 -71 -63h-4q-71 13 -71 71v418q0 281 -242 370q-59 15 -105 15h-11q-203 0 -314 -210q-29 -64 -29 -205v-392q0 -55 -71 -67h-4q-57 0 -71 75v862q9 86 75 86z" />
    <glyph glyph-name="o" unicode="o" horiz-adv-x="1170" 
d="M547 1018q197 0 357 -149q152 -160 152 -360q0 -286 -271 -450q-117 -59 -227 -59h-30q-205 0 -382 193q-108 153 -108 316q0 248 219 416q140 93 290 93zM187 520v-18q0 -204 197 -316q71 -37 152 -37h22q211 0 323 219q26 69 26 134v18q0 170 -156 286q-91 63 -208 63
q-231 0 -338 -241q-18 -59 -18 -108z" />
    <glyph glyph-name="p" unicode="p" horiz-adv-x="1172" 
d="M566 1020q196 0 355 -148q152 -160 152 -359q0 -285 -270 -448q-117 -59 -226 -59h-30q-176 0 -344 152v-511q0 -47 -74 -63q-53 0 -70 74v822q0 384 363 518q45 14 144 22zM207 524v-19q0 -202 196 -314q71 -37 152 -37h22q211 0 322 218q26 69 26 133v19
q0 169 -155 285q-92 63 -208 63q-230 0 -336 -241q-19 -59 -19 -107z" />
    <glyph glyph-name="q" unicode="q" horiz-adv-x="1178" 
d="M550 1010q195 0 354 -147q151 -147 151 -391v-818q-17 -74 -70 -74q-74 16 -74 63v508q-164 -151 -350 -151h-29q-204 0 -380 192q-107 152 -107 313q0 246 217 413q140 92 288 92zM192 516v-18q0 -202 196 -313q70 -37 151 -37h22q210 0 321 217q26 69 26 133v18
q0 168 -155 284q-91 63 -207 63q-229 0 -335 -240q-19 -58 -19 -107z" />
    <glyph glyph-name="r" unicode="r" horiz-adv-x="925" 
d="M174 1031q72 -18 72 -64v-83q165 147 353 147q101 0 215 -49q30 -31 30 -60v-4q-12 -71 -71 -71h-4q-103 33 -155 33h-22q-221 0 -324 -229q-22 -61 -22 -139v-444q0 -56 -72 -68h-4q-57 0 -71 75v869q9 87 75 87z" />
    <glyph glyph-name="s" unicode="s" horiz-adv-x="968" 
d="M445 1017q257 0 404 -233l3 -29v-4q0 -59 -74 -70q-49 0 -100 85q-103 100 -233 100q-171 0 -270 -163l-3 -19q0 -49 111 -59q426 -103 466 -118q107 -70 107 -178v-3q0 -154 -226 -282q-97 -44 -207 -44q-225 0 -381 211q-15 22 -15 41v22q0 54 82 63q35 0 100 -93
q99 -92 229 -92q156 0 259 148l7 22v4q0 48 -66 55q-497 111 -526 137q-92 70 -92 170q0 140 203 270q112 59 222 59z" />
    <glyph glyph-name="t" unicode="t" horiz-adv-x="704" 
d="M270 1390h14q66 -14 66 -59v-330h151l33 4q51 0 69 -74q0 -50 -62 -73l-55 4h-136v-539q0 -141 92 -173l84 -7h41q48 0 62 -70v-3q-12 -70 -70 -70h-77q-175 0 -260 191q-15 47 -15 110v561h-73l-59 -4q-62 22 -62 73q12 70 66 70v4l37 -4h91v308q9 81 63 81z" />
    <glyph glyph-name="u" unicode="u" horiz-adv-x="1188" 
d="M145 1027q71 -18 71 -64v-401q0 -257 146 -345q93 -71 207 -71q218 0 329 225q23 73 23 146v435q15 75 75 75q71 -16 71 -71v-892q0 -50 -71 -64h-4q-71 13 -71 71v71h-4q-156 -142 -337 -142h-26q-233 0 -405 229q-79 123 -79 303v409q9 86 75 86z" />
    <glyph glyph-name="v" unicode="v" horiz-adv-x="1132" 
d="M97 1029h7q59 0 102 -124l322 -661q350 742 372 766q26 19 49 19q75 -14 75 -71v-4q0 -19 -165 -361l-278 -570q-30 -23 -53 -23h-3q-64 0 -113 143q-363 742 -383 800v18q13 68 68 68z" />
    <glyph glyph-name="w" unicode="w" horiz-adv-x="1416" 
d="M108 1009q68 0 95 -148l181 -555h3q207 659 221 677q26 22 56 26q66 0 88 -122l188 -581h3q199 631 217 670q31 33 59 33q74 -15 74 -74l-291 -906q-31 -29 -59 -29h-3q-68 0 -96 144q-177 536 -177 552h-7l-214 -663q-25 -33 -59 -33h-3q-52 0 -74 66l-276 869
q15 74 74 74z" />
    <glyph glyph-name="x" unicode="x" horiz-adv-x="968" 
d="M111 1006q45 0 114 -106q188 -225 228 -283h4q32 32 301 371q13 12 47 18q70 -17 70 -62v-22q0 -23 -132 -177l-195 -246q327 -393 327 -411v-22q0 -54 -70 -66h-3q-43 0 -96 84l-249 305q-294 -367 -309 -378q-18 -11 -37 -11h-3q-59 0 -70 77q0 29 140 187l187 239
l-320 400l-7 30q15 73 73 73z" />
    <glyph glyph-name="y" unicode="y" horiz-adv-x="913" 
d="M751 1012q69 -13 69 -66v-4q-3 -25 -345 -840q-161 -401 -181 -426q-18 -14 -45 -21q-70 15 -70 60v17q0 13 157 391v3l-332 810v3q14 69 70 69q59 0 101 -138q227 -538 234 -566h3q274 669 290 687q25 21 49 21z" />
    <glyph glyph-name="z" unicode="z" horiz-adv-x="1018" 
d="M104 1012l37 -4h639l34 4q66 -20 66 -63v-22q0 -23 -85 -115l-532 -668h551q66 -13 66 -66v-12q0 -54 -70 -66h-702q-59 0 -70 78q0 29 151 203l466 587h-495l-59 -4q-63 22 -63 74q12 70 66 70v4z" />
    <glyph glyph-name="_16" horiz-adv-x="854" 
d="M725.5 1240q123.5 -137 123.5 -330q0 -194 -123.5 -330.5t-298.5 -136.5t-298.5 136.5t-123.5 330.5q0 193 123.5 330t298.5 137t298.5 -137z" />
    <glyph glyph-name="_17" horiz-adv-x="854" 
d="M725.5 1240q123.5 -137 123.5 -330q0 -194 -123.5 -330.5t-298.5 -136.5t-298.5 136.5t-123.5 330.5q0 193 123.5 330t298.5 137t298.5 -137z" />
    <glyph glyph-name="zero" unicode="0" horiz-adv-x="305" 
d="M61 539v-146h162v146h-162z" />
    <glyph glyph-name="one" unicode="1" horiz-adv-x="305" 
d="M223 1083v146h-162v-1229h125v1083h37z" />
    <glyph glyph-name="two" unicode="2" horiz-adv-x="1001" 
d="M186 817q2 115 88 201t209 86q125 0 213 -86q86 -88 86 -211l139 -2q0 178 -125 303t-305 125q-178 0 -303 -125q-121 -121 -127 -285v-823h125l2 817h-2z" />
    <glyph glyph-name="three" unicode="3" horiz-adv-x="1013" 
d="M931 596v637h-125v-512h-270v508h-127v-508h-221v508h-127l2 -1229h125v596h743z" />
    <glyph glyph-name="four" unicode="4" horiz-adv-x="825" 
d="M178 578q-101 -99 -101 -244q0 -141 103 -244q100 -100 241 -100q144 0 244 100q53 53 78 117l-117 59q-12 -37 -51 -82q-65 -59 -152 -59q-88 0 -151 63q-64 62 -64 152q0 88 64 152q63 63 151 63h173v123h-189q-86 0 -151 65q-64 64 -64 152q0 90 64 154q65 61 151 61
q88 0 152 -61q37 -41 51 -80l117 59q-21 62 -76 117q-101 98 -246 98q-141 0 -242 -100q-102 -103 -102 -244q0 -143 100 -244q19 -16 56 -45q-21 -14 -39 -32z" />
    <glyph glyph-name="five" unicode="5" horiz-adv-x="1001" 
d="M456 270q-104 13 -174 86q-88 86 -88 209q0 125 88 213q86 86 211 86q123 0 211 -86q86 -88 86 -213q0 -123 -86 -209t-201 -88v2h-47zM188 268q131 -121 322 -125q163 7 284 127q125 125 125 303q0 181 -125 306t-303 125t-303 -125q-127 -127 -127 -306
q0 -176 127 -303v-2z" />
    <glyph glyph-name="six" unicode="6" horiz-adv-x="755" 
d="M548 1083v-1083h125v1229h-612v-146h487z" />
    <glyph glyph-name="seven" unicode="7" horiz-adv-x="1015" 
d="M589 2l344 1180l-135 -15l-301 -1038l-305 1045l-131 8l344 -1180h184z" />
    <glyph glyph-name="eight" unicode="8" horiz-adv-x="1015" 
d="M405 1182l-344 -1180l131 8l305 1045l301 -1039l135 -14l-344 1180h-184z" />
    <glyph glyph-name="nine" unicode="9" horiz-adv-x="1001" 
d="M499 1225h-10q-178 0 -303 -125q-127 -127 -127 -303v-11q2 -170 125 -294q125 -125 305 -125h305v-369h125v817q-6 164 -127 285q-123 123 -293 125zM198 786v13q0 123 88 211q86 86 211 86h2q121 0 207 -86t88 -201v-309h-297q-123 0 -213 86q-82 82 -86 200z" />
    <glyph glyph-name="_18" horiz-adv-x="854" 
d="M725.5 1240q123.5 -137 123.5 -330q0 -194 -123.5 -330.5t-298.5 -136.5t-298.5 136.5t-123.5 330.5q0 193 123.5 330t298.5 137t298.5 -137z" />
    <glyph glyph-name="_19" horiz-adv-x="854" 
d="M725.5 1240q123.5 -137 123.5 -330q0 -194 -123.5 -330.5t-298.5 -136.5t-298.5 136.5t-123.5 330.5q0 193 123.5 330t298.5 137t298.5 -137z" />
    <glyph glyph-name="exclam" unicode="!" horiz-adv-x="511" 
d="M214 1442h12q60 0 73 -69v-955q-17 -72 -77 -72q-81 12 -81 69v962q14 65 73 65zM205 206h8q103 -15 103 -92v-22q0 -71 -95 -92h-12q-79 0 -99 103q21 103 95 103z" />
    <glyph glyph-name="at" unicode="@" horiz-adv-x="2019" 
d="M936 1571h36q416 0 724 -356q212 -271 212 -596q0 -406 -276 -516q-71 -32 -144 -32h-28q-139 0 -164 52l-4 20l4 100v4q-176 -168 -380 -168h-32q-279 0 -464 280q-68 135 -68 272q0 306 300 484q128 60 248 60q311 0 492 -304q56 -124 56 -256v-384l28 -4
q149 0 232 148q40 97 40 212v52q0 325 -272 580q-237 196 -520 196q-418 0 -676 -368q-124 -200 -124 -428v-4q0 -378 312 -632q223 -164 488 -164q223 0 448 136l20 4q80 -16 80 -80q0 -98 -336 -192q-94 -24 -184 -24h-52q-347 0 -640 264q-296 298 -296 696
q0 405 328 712q280 236 612 236zM508 635v-12q0 -238 240 -360q76 -28 136 -28h32q199 0 328 200q48 94 48 180v16q0 230 -228 352q-79 36 -164 36h-4q-242 0 -364 -252q-24 -78 -24 -132z" />
    <glyph glyph-name="numbersign" unicode="#" horiz-adv-x="1336" 
d="M996 1431q68 -19 68 -64v-11q0 -29 -76 -389h110l34 4q55 0 71 -76q-15 -75 -75 -75h-170l-37 -192h139q87 -8 87 -76q-14 -71 -72 -71v-4l-19 4h-166q-83 -419 -98 -449q-25 -34 -60 -34h-8q-67 14 -67 68v3l83 412h-215q-10 0 -53 -246q-41 -200 -53 -207
q-24 -34 -60 -34q-76 15 -76 75l83 412h-102l-22 -4q-57 0 -72 79v4q0 51 75 68h155l38 192h-136q-75 15 -75 75q12 72 67 72v4l38 -4h136q82 438 98 438q28 22 57 22q61 0 71 -75l-75 -385h219q80 415 94 434q28 30 64 30zM589 820l-38 -192h219l37 192h-218z" />
    <glyph glyph-name="dollar" unicode="$" horiz-adv-x="1014" 
d="M477 1652h20q50 0 65 -73v-128q93 -7 209 -112q43 -43 43 -66v-23q0 -50 -74 -62q-30 0 -96 73q-33 28 -82 43v-460q177 -65 252 -206q58 -109 58 -208q0 -278 -286 -403l-24 -4v-127q-18 -74 -73 -74q-77 16 -77 74v104q0 6 -89 19q-173 59 -248 182l-4 23q13 74 74 74
q40 0 108 -85q87 -57 159 -62v580q-132 41 -182 113q-101 104 -101 239v28q0 189 194 305q64 31 89 31v140q20 65 65 65zM276 1091v-31q0 -124 136 -198v414q-136 -67 -136 -185zM562 669v-511h4q155 91 155 232v39q0 143 -159 240z" />
    <glyph glyph-name="percent" unicode="%" horiz-adv-x="1610" 
d="M452 1436h19q167 0 284 -152q68 -100 68 -205q0 -233 -242 -344q-69 -19 -114 -19h-7q-210 0 -322 204q-38 77 -38 156q0 236 250 344q51 16 102 16zM1286 1436h11q68 -14 68 -69v-15q0 -22 -140 -201l-860 -1136q-29 -15 -45 -15h-4q-72 15 -72 64v16q0 31 106 159
l894 1181q23 16 42 16zM248 1079v-7q0 -150 166 -205l38 -3h19q147 0 201 170l4 42q0 154 -163 208l-49 8q-152 0 -209 -159zM1149 723q211 0 333 -219q27 -80 27 -140v-12q0 -211 -223 -325q-69 -27 -137 -27h-7q-184 0 -303 178q-50 86 -50 170v23q0 190 190 307
q91 45 170 45zM933 364q0 -150 156 -209l53 -7h15q143 0 200 163l4 34v26q0 149 -174 201l-38 4q-159 0 -212 -178z" />
    <glyph glyph-name="ampersand" unicode="&#x26;" horiz-adv-x="1457" 
d="M490 1433h19q193 0 285 -212q11 -48 11 -83v-19q0 -146 -155 -270l-38 -41l322 -323h4l155 156q26 19 49 19q70 0 80 -84q0 -42 -133 -159l-41 -45l216 -217q15 -19 15 -41v-12q-15 -72 -72 -72h-11q-42 0 -141 114l-121 118q-216 -235 -284 -235q-66 -27 -133 -27
q-220 0 -349 220q-38 89 -38 171q0 194 212 367l46 50q-186 173 -186 258q-8 0 -8 68q0 187 201 284q54 15 95 15zM354 1149v-30q0 -77 144 -198h4q148 128 148 198v15q0 95 -114 140l-38 4q-92 0 -137 -99zM289 398v-19q0 -147 167 -212l57 -8q131 0 250 152l61 61
l-322 322h-4q-205 -182 -205 -265z" />
    <glyph glyph-name="quotedbl" unicode="&#x22;" horiz-adv-x="557" 
d="M159 1559q76 -19 76 -68q-21 -312 -52 -312l-28 -8q-50 0 -56 124l-20 184q16 80 80 80zM407 1559q51 0 72 -76q-29 -296 -44 -296q-17 -16 -32 -16h-4q-56 0 -56 136l-20 184q0 54 84 68z" />
    <glyph glyph-name="quotesingle" unicode="'" horiz-adv-x="346" 
d="M172 1546q76 -19 76 -68q-21 -312 -52 -312l-28 -8q-50 0 -56 124l-20 184q16 80 80 80z" />
    <glyph glyph-name="parenleft" unicode="(" horiz-adv-x="758" 
d="M603 1596h11q69 -13 69 -68v-12l-76 -203q-131 -353 -131 -724q0 -463 207 -915l4 -15q-14 -77 -73 -77h-7q-65 0 -104 138q-176 409 -176 873q0 498 222 977q28 26 54 26z" />
    <glyph glyph-name="parenright" unicode=")" horiz-adv-x="758" 
d="M140 1600h15q53 0 96 -138q176 -419 176 -866q0 -527 -229 -993q-29 -19 -50 -19h-8q-60 0 -73 77l81 202q130 368 130 729q0 453 -207 916l-4 15q13 77 73 77z" />
    <glyph glyph-name="asterisk" unicode="*" horiz-adv-x="1024" 
d="M522 1559q76 -19 76 -76v-8l-52 -168v-4h4l160 100l24 4q76 -15 76 -76v-12q0 -41 -60 -68l-124 4h-72l152 -124l12 -32v-20q0 -59 -76 -72q-73 0 -88 112l-32 96h-4l-48 -164q-30 -44 -72 -44q-76 17 -76 68v16q0 47 92 100l76 64h-4l-196 -4q-60 24 -60 76v4
q0 61 80 76q29 0 136 -80l48 -24v4l-52 168v8q0 59 80 76z" />
    <glyph glyph-name="plus" unicode="+" horiz-adv-x="1014" 
d="M512 1117h12q59 0 72 -76v-224h212q92 -8 92 -80q-15 -76 -76 -76v-4l-20 4h-208v-228q-14 -76 -76 -76h-4q-76 15 -76 68v236h-204l-24 -4q-60 0 -76 84v4q0 54 80 72h224v228q14 72 72 72z" />
    <glyph glyph-name="comma" unicode="," horiz-adv-x="557" 
d="M254 282h16q136 -28 136 -136l4 -4l-4 -4v-4l8 -56v-16q0 -184 -184 -276q-37 -24 -60 -24q-42 0 -52 60q0 47 84 64q42 24 84 80l16 44l-48 -8q-148 25 -148 144v4q0 82 104 124q16 8 44 8z" />
    <glyph glyph-name="period" unicode="." horiz-adv-x="557" 
d="M269 274q105 0 135 -125v-24q0 -75 -96 -118q-14 -7 -39 -7h-4q-112 0 -135 139q0 88 100 128q14 7 39 7z" />
    <glyph glyph-name="slash" unicode="/" horiz-adv-x="770" 
d="M628 1517q76 -13 76 -72v-20q-504 -1389 -556 -1516q-30 -32 -60 -32h-8q-62 0 -76 80q4 27 556 1524q35 36 68 36z" />
    <glyph glyph-name="colon" unicode=":" horiz-adv-x="557" 
d="M292 952q89 0 124 -104v-32q0 -75 -104 -112h-20q-124 19 -124 124q25 124 124 124zM280 284h16q95 0 120 -112v-20q0 -87 -120 -116q-128 22 -128 128q26 120 112 120z" />
    <glyph glyph-name="semicolon" unicode=";" horiz-adv-x="557" 
d="M267 926q89 0 124 -104v-32q0 -75 -104 -112h-20q-124 19 -124 124q25 124 124 124zM291 258q128 0 128 -192v-4q0 -186 -224 -260h-20q-48 10 -48 48v16q12 48 56 48l24 -4q100 53 100 104l-12 -4q-132 21 -132 124q0 88 100 124h28z" />
    <glyph glyph-name="hyphen" unicode="-" horiz-adv-x="922" 
d="M0 512h717v-102h-717v102z" />
    <glyph glyph-name="less" unicode="&#x3c;" horiz-adv-x="1014" 
d="M830 1102q76 -19 76 -76v-8q0 -57 -132 -120q-5 -9 -428 -268q17 -17 536 -340q24 -28 24 -56v-4q0 -65 -80 -76q-31 0 -148 80l-536 332q-28 31 -28 60q0 59 112 108q571 368 596 368h8z" />
    <glyph glyph-name="equal" unicode="=" horiz-adv-x="1014" 
d="M212 833h612q59 0 76 -80q-18 -76 -76 -76h-612q-65 0 -76 84q20 72 76 72zM216 501h604q80 -16 80 -80q-16 -76 -76 -76h-620q-56 0 -68 84q0 54 80 72z" />
    <glyph glyph-name="greater" unicode="&#x3e;" horiz-adv-x="1014" 
d="M217 1120q29 0 236 -136q428 -264 460 -292q16 -21 16 -44v-8q0 -56 -96 -96q-583 -372 -604 -372h-16q-76 14 -76 76v4q0 58 128 120l432 276q-516 316 -540 340q-20 28 -20 52q16 80 80 80z" />
    <glyph glyph-name="question" unicode="?" horiz-adv-x="980" 
d="M497 1433q180 0 326 -159q102 -128 102 -280q0 -189 -170 -337q-175 -96 -175 -281q-11 -75 -75 -75q-72 16 -72 64v30q0 236 250 390q94 93 94 220q0 161 -170 257q-76 23 -121 23q-167 0 -261 -178l-27 -129q-32 -41 -64 -41q-76 16 -76 72q0 204 201 356
q123 68 238 68zM493 198h16q66 0 94 -83v-26q-18 -95 -106 -95q-98 21 -98 98q0 87 94 106z" />
    <glyph glyph-name="uni061F" unicode="&#x61f;" horiz-adv-x="980" 
d="M724 1365q201 -152 201 -356q0 -56 -76 -72q-32 0 -64 41l-27 129q-94 178 -261 178q-45 0 -121 -23q-170 -96 -170 -257q0 -127 94 -220q250 -154 250 -390v-30q0 -48 -72 -64q-64 0 -75 75q0 185 -175 281q-170 148 -170 337q0 152 102 280q146 159 326 159
q115 0 238 -68zM584 92q0 -77 -98 -98q-88 0 -106 95v26q28 83 94 83h16q94 -19 94 -106z" />
    <glyph glyph-name="bracketleft" unicode="[" horiz-adv-x="779" 
d="M319 1581l40 -4h292l44 4q72 -25 72 -72v-12q0 -50 -64 -76l-68 4h-232v-1692h292q72 -16 72 -68v-12q0 -66 -84 -76h-356q-80 16 -80 80v1832q7 88 72 88v4z" />
    <glyph glyph-name="backslash" unicode="\" horiz-adv-x="691" 
d="M76 1548h4q76 0 116 -172q364 -976 508 -1388q-14 -80 -76 -80h-16q-61 0 -104 168q-472 1272 -508 1392q12 80 76 80z" />
    <glyph glyph-name="bracketright" unicode="]" horiz-adv-x="758" 
d="M94 1581l60 -4h276l44 4q72 -20 72 -76v-1860q0 -53 -76 -68h-368q-66 0 -76 84v4q0 49 76 72l20 -4h268v1692h-220l-76 -4q-68 23 -68 80q0 55 68 80z" />
    <glyph glyph-name="asciicircum" unicode="^" horiz-adv-x="942" 
d="M384 1434h16q53 0 112 -116q232 -351 232 -372v-24q0 -56 -84 -68q-50 0 -140 168l-128 188l-220 -340q-34 -16 -56 -16q-54 0 -72 80q0 32 80 148q207 328 228 340z" />
    <glyph glyph-name="underscore" unicode="_" horiz-adv-x="958" 
d="M75 -29h885q74 -13 74 -70v-12q-14 -70 -70 -70h-889q-63 0 -74 82q20 70 74 70z" />
    <glyph glyph-name="braceleft" unicode="{" horiz-adv-x="1014" 
d="M683 1590h140q67 0 84 -61v-23q0 -48 -68 -64h-145q-72 0 -72 -76v-579q0 -47 -46 -121q49 -55 49 -130v-586q0 -61 73 -61h141q68 -14 68 -68v-15q0 -50 -72 -65h-149q-150 0 -205 167l-4 50v574q0 50 -53 61h-84q-76 15 -76 76q16 73 65 73h61q83 0 83 53v574
q0 166 168 217z" />
    <glyph glyph-name="bar" unicode="|" horiz-adv-x="1014" 
d="M504 1619h8q69 -13 69 -69v-1908q0 -48 -77 -65q-58 0 -73 81v1884q13 77 73 77z" />
    <glyph glyph-name="braceright" unicode="}" horiz-adv-x="1014" 
d="M177 1578h154q141 0 198 -157l4 -34v-580q0 -64 86 -64h60q60 -18 60 -67v-15q0 -50 -71 -64h-79q-60 0 -60 -94v-554q0 -126 -157 -187l-45 -4h-150q-71 11 -71 71v4q12 71 67 71h139q71 0 71 60v562q0 85 49 146q-45 65 -45 120v580q0 60 -71 60h-143q-55 0 -67 71
q11 75 71 75z" />
    <glyph glyph-name="asciitilde" unicode="~" horiz-adv-x="1014" 
d="M373 851h24q92 0 212 -81l38 -10h24l96 29q96 -19 96 -96q0 -97 -182 -120h-34q-91 0 -211 82l-39 9h-24l-91 -24h-10q-86 17 -86 87v14q0 72 106 96q38 14 81 14z" />
    <glyph glyph-name="grave" unicode="`" horiz-adv-x="752" 
d="M283 1411h12q39 0 108 -84q180 -169 180 -192l4 -20q-16 -76 -76 -76h-8q-44 0 -164 136q-128 111 -128 156v12q0 52 72 68z" />
    <glyph glyph-name="uni061B" unicode="&#x61b;" horiz-adv-x="410" 
d="M29.5 175.5q29.5 29.5 72.5 29.5t73 -29.5t30 -72.5t-30 -73t-73 -30t-72.5 30t-29.5 73t29.5 72.5zM205 512q0 -43 -30 -72.5t-73 -29.5t-72.5 29.5t-29.5 72.5v410q84 0 144.5 -60.5t60.5 -144.5v-205z" />
    <glyph glyph-name="uni060C" unicode="&#x60c;" horiz-adv-x="410" 
d="M205 102q0 -43 -30 -72.5t-73 -29.5t-72.5 29.5t-29.5 72.5v410q84 0 144.5 -60.5t60.5 -144.5v-205z" />
    <glyph glyph-name="uni066A" unicode="&#x66a;" horiz-adv-x="1610" 
d="M452 1436h19q167 0 284 -152q68 -100 68 -205q0 -233 -242 -344q-69 -19 -114 -19h-7q-210 0 -322 204q-38 77 -38 156q0 236 250 344q51 16 102 16zM1286 1436h11q68 -14 68 -69v-15q0 -22 -140 -201l-860 -1136q-29 -15 -45 -15h-4q-72 15 -72 64v16q0 31 106 159
l894 1181q23 16 42 16zM248 1079v-7q0 -150 166 -205l38 -3h19q147 0 201 170l4 42q0 154 -163 208l-49 8q-152 0 -209 -159zM1149 723q211 0 333 -219q27 -80 27 -140v-12q0 -211 -223 -325q-69 -27 -137 -27h-7q-184 0 -303 178q-50 86 -50 170v23q0 190 190 307
q91 45 170 45zM933 364q0 -150 156 -209l53 -7h15q143 0 200 163l4 34v26q0 149 -174 201l-38 4q-159 0 -212 -178z" />
    <glyph glyph-name="uni066D" unicode="&#x66d;" horiz-adv-x="717" 
d="M391 881l74 -72l-92 -92h139v-103h-143l96 -96l-74 -72l-84 84v-120h-102v139l-103 -103l-71 72l94 96h-125v103h121l-90 92l71 72l103 -103v144h102v-125z" />
  </font>
</defs>
</svg>
